<?xml version="1.0" standalone="no"?>
<!DOCTYPE svg PUBLIC "-//W3C//DTD SVG 20010904//EN"
 "http://www.w3.org/TR/2001/REC-SVG-20010904/DTD/svg10.dtd">
<svg version="1.0" xmlns="http://www.w3.org/2000/svg"
 width="1000.000000pt" height="580.000000pt" viewBox="0 0 1000.000000 580.000000"
 preserveAspectRatio="xMidYMid meet">

<g transform="translate(0.000000,780.000000) scale(0.100000,-0.100000)"
fill="#000000" stroke="none">
<path d="M3736 6342 c-3 -5 -8 -51 -12 -103 -4 -52 -18 -132 -32 -179 -13 -47
-34 -124 -47 -171 -12 -47 -45 -143 -73 -215 -28 -71 -67 -184 -87 -251 -20
-67 -42 -138 -50 -157 -25 -59 -19 -76 47 -145 78 -79 91 -87 157 -95 67 -9
120 -35 156 -78 25 -29 27 -38 22 -89 -9 -102 -130 -318 -271 -483 -94 -110
-123 -155 -166 -255 -20 -47 -53 -112 -73 -145 -21 -33 -41 -83 -47 -115 -5
-31 -21 -96 -35 -146 -40 -147 -40 -157 -5 -290 29 -110 31 -128 25 -219 -3
-55 -13 -128 -21 -163 -8 -35 -15 -92 -16 -126 -2 -72 2 -82 109 -236 l65 -93
55 7 54 7 83 -80 c83 -78 85 -79 147 -86 80 -8 95 2 142 91 39 75 133 185 178
209 47 24 120 34 170 23 64 -14 112 -50 159 -119 48 -70 71 -76 115 -30 21 22
38 30 64 30 46 0 95 -30 116 -71 15 -28 20 -31 51 -26 84 14 157 99 157 183 0
25 -6 51 -15 61 -9 10 -32 50 -51 89 -19 38 -42 76 -51 83 -8 7 -57 33 -108
59 -95 48 -128 82 -115 116 9 23 27 12 69 -44 20 -27 45 -47 63 -52 17 -4 49
-13 73 -18 38 -10 48 -19 83 -75 50 -79 79 -94 153 -76 28 7 66 15 85 18 l34
6 -7 -69 c-6 -63 -4 -75 22 -129 44 -91 47 -93 150 -66 106 28 132 43 132 78
0 19 -14 40 -52 75 -52 48 -52 48 -39 83 16 46 5 64 -61 100 -55 30 -73 47
-82 78 -7 30 25 16 44 -18 11 -21 28 -33 54 -40 26 -6 49 -23 73 -52 20 -24
43 -43 53 -43 19 0 36 31 46 87 10 57 31 93 80 139 48 45 56 81 30 132 -32 64
-58 242 -35 242 16 0 58 -100 76 -183 15 -70 15 -78 -2 -128 -13 -41 -17 -82
-16 -170 2 -127 8 -161 42 -217 41 -68 59 -82 105 -82 58 0 68 16 60 94 -6 60
-5 66 16 81 18 12 39 14 103 10 l80 -6 58 40 c62 42 140 65 191 56 18 -4 80
-45 145 -95 97 -76 121 -89 163 -95 36 -5 69 -20 116 -53 83 -57 132 -75 167
-62 17 7 25 17 25 34 0 30 -18 49 -62 65 -18 6 -64 28 -102 47 -38 20 -90 42
-117 50 -65 19 -106 56 -120 106 -6 23 -20 54 -32 69 -11 16 -17 32 -13 36 13
13 41 -14 56 -54 32 -85 60 -92 135 -35 56 42 64 70 25 88 -14 7 -55 26 -92
43 -59 28 -68 36 -82 74 -8 23 -18 60 -21 82 -10 58 -30 102 -54 114 -17 10
-26 5 -64 -34 -25 -25 -50 -45 -56 -45 -16 0 -33 50 -27 75 3 12 17 27 31 33
14 6 25 17 25 23 0 7 -20 33 -44 59 -37 39 -45 56 -55 111 -6 36 -11 89 -11
117 0 49 3 55 44 89 23 20 3 72 -48 120 -40 38 -47 53 -24 53 4 0 22 -14 40
-30 36 -35 61 -36 66 -3 2 15 -11 38 -42 71 -25 27 -46 58 -46 70 0 11 -9 27
-20 35 -20 14 -20 15 10 20 37 8 38 25 3 53 -26 21 -27 24 -15 56 17 49 15 59
-15 84 -27 22 -27 24 -13 51 9 15 33 36 53 46 35 16 38 21 35 55 -2 29 -8 38
-29 46 -40 14 -73 1 -86 -35 -7 -17 -18 -29 -24 -27 -23 8 -20 24 11 63 36 45
36 52 9 81 -14 15 -22 40 -25 80 -3 34 -14 72 -25 89 -44 69 -62 121 -63 180
-1 53 4 67 38 124 35 57 40 74 46 148 7 92 15 108 36 79 23 -32 17 -98 -16
-174 -37 -87 -37 -104 -4 -147 l26 -35 -23 -9 c-13 -5 -32 -12 -41 -15 -25 -7
-23 -62 2 -104 25 -41 46 -49 69 -28 15 13 20 14 24 4 3 -10 9 -9 24 5 36 32
45 22 38 -40 -4 -32 -14 -66 -23 -76 -15 -16 -14 -20 11 -43 15 -14 24 -30 21
-39 -8 -19 25 -33 36 -15 12 19 38 5 58 -31 30 -54 93 -139 103 -139 5 0 9 19
7 41 -1 31 3 45 17 55 16 12 21 12 34 -1 13 -13 13 -20 2 -48 -33 -81 -33
-120 -3 -199 17 -42 48 -98 74 -130 25 -31 48 -62 50 -69 7 -21 27 0 34 36 3
20 14 45 23 58 30 38 31 54 5 88 -13 18 -24 41 -24 51 0 9 24 35 54 57 34 25
56 50 60 68 4 15 20 48 36 73 23 37 29 61 34 135 8 110 22 131 102 162 67 26
94 53 94 94 0 38 -19 47 -42 20 -22 -28 -48 -21 -48 12 0 13 -5 28 -11 34 -8
8 1 23 35 55 27 26 46 54 46 66 0 31 -35 62 -70 62 -20 0 -38 9 -52 25 -12 14
-27 25 -33 25 -20 0 -64 -40 -81 -73 -15 -28 -15 -31 1 -43 17 -12 17 -15 1
-48 -9 -19 -16 -42 -16 -52 0 -10 -18 -34 -41 -54 -26 -23 -58 -70 -92 -135
-76 -146 -81 -145 -215 39 -35 48 -4 46 38 -2 35 -41 69 -55 71 -29 1 6 0 28
-1 47 -2 35 -2 35 19 16 27 -25 45 -11 66 55 10 28 24 53 34 56 31 11 51 36
51 65 0 15 9 45 20 65 11 21 20 50 20 64 0 15 6 32 14 38 8 7 19 25 24 40 l10
27 -337 123 c-398 146 -407 149 -422 134 -8 -8 -8 -17 1 -33 14 -27 23 -29
-180 45 -216 78 -220 80 -220 108 0 13 -9 36 -20 50 -24 31 -25 40 -4 73 16
24 16 26 -10 52 -19 21 -26 38 -26 69 0 48 -10 57 -65 58 -33 0 -41 4 -43 22
-2 12 -12 25 -23 28 -11 4 -36 20 -54 37 -36 31 -55 30 -55 -3 0 -24 -4 -24
-43 3 -18 13 -34 24 -36 26 -3 1 5 10 18 18 25 18 26 57 1 62 -30 5 -54 -24
-52 -61 2 -30 -2 -39 -25 -54 -37 -23 -43 -32 -43 -70 0 -22 -6 -36 -20 -43
-12 -6 -25 -29 -31 -55 -6 -25 -12 -45 -13 -45 -26 0 -297 108 -828 331 -235
98 -432 179 -437 179 -5 0 -12 -4 -15 -8z"/>
<path d="M7269 4528 c-6 -13 -18 -27 -25 -31 -22 -13 -18 -133 5 -166 17 -23
18 -29 5 -51 -19 -35 -17 -54 6 -75 21 -19 26 -50 10 -60 -19 -12 -10 -42 26
-83 24 -28 44 -42 60 -42 28 0 31 12 9 30 -9 7 -25 26 -37 42 l-21 30 21 28
c19 25 21 37 15 94 -8 84 8 106 74 106 23 0 43 4 43 10 0 5 -17 21 -37 35 -23
15 -53 51 -73 87 -39 69 -62 82 -81 46z"/>
<path d="M6755 4465 c-39 -38 -33 -79 20 -155 25 -35 45 -70 45 -77 0 -8 -16
-39 -35 -69 -19 -30 -35 -59 -35 -64 0 -6 13 -34 29 -63 17 -28 39 -77 50
-108 12 -31 33 -67 47 -80 14 -13 37 -48 51 -76 31 -67 54 -70 84 -11 12 23
28 48 35 56 8 7 14 20 14 29 0 26 -30 79 -60 108 -31 30 -39 62 -17 70 60 21
66 25 61 39 -3 9 -14 18 -25 21 -32 10 -49 35 -49 70 0 53 -16 83 -56 102 -52
25 -74 59 -87 139 -18 102 -29 113 -72 69z"/>
<path d="M4065 2617 c-11 -13 -29 -28 -40 -34 -19 -11 -19 -12 -2 -30 21 -24
22 -33 2 -33 -25 0 -17 -18 15 -35 29 -15 30 -15 76 32 30 30 43 48 34 51 -14
5 -40 31 -55 55 -9 15 -12 15 -30 -6z"/>
<path d="M4308 2466 c-18 -22 -33 -59 -44 -107 -29 -127 -29 -134 -1 -156 13
-10 34 -38 46 -61 15 -29 30 -44 49 -48 15 -3 52 -13 82 -21 154 -42 268 -42
304 -1 11 14 29 28 39 31 34 12 20 54 -35 107 -58 55 -75 61 -87 28 -7 -20 -9
-18 -15 15 -10 55 -47 91 -118 117 -77 29 -146 74 -160 106 -15 32 -27 29 -60
-10z"/>
<path d="M4063 2431 l-22 -18 35 -26 c33 -23 37 -24 65 -10 28 14 31 33 5 33
-7 0 -21 9 -31 20 -22 24 -24 24 -52 1z"/>
<path d="M0 400 l0 -400 5000 0 5000 0 0 400 0 400 -5000 0 -5000 0 0 -400z
m2192 123 c23 -20 23 -57 1 -74 -15 -11 -16 -11 -5 1 27 31 11 72 -33 83 -19
4 -19 5 -1 6 11 0 28 -6 38 -16z m-69 -8 c-3 -9 -8 -14 -10 -11 -3 3 -2 9 2
15 9 16 15 13 8 -4z m-1760 -114 c22 -61 43 -108 47 -104 4 4 24 56 45 116 21
59 42 107 47 107 11 0 9 -5 -42 -149 -23 -64 -44 -107 -53 -109 -15 -3 -17 0
-67 143 -15 44 -31 88 -36 99 -5 13 -3 17 6 14 8 -2 32 -55 53 -117z m517 89
c0 -23 4 -30 20 -30 11 0 20 -4 20 -10 0 -5 -10 -10 -21 -10 -20 0 -21 -4 -17
-71 3 -55 8 -74 23 -85 10 -8 16 -16 13 -19 -11 -11 -40 8 -49 32 -12 33 -12
223 1 223 6 0 10 -13 10 -30z m515 16 c24 -11 33 -20 29 -30 -5 -14 -9 -14
-34 -1 -36 18 -61 19 -84 2 -28 -21 -9 -45 49 -62 87 -25 108 -74 54 -127 -29
-29 -33 -30 -90 -25 -68 6 -72 8 -64 29 5 13 12 14 40 5 50 -15 100 1 100 33
0 16 -8 28 -25 36 -113 52 -119 58 -106 110 11 42 70 55 131 30z m105 -16 c0
-25 4 -30 25 -30 16 0 25 -6 25 -15 0 -9 -9 -15 -25 -15 -25 0 -26 -1 -23 -62
3 -54 6 -64 26 -73 12 -5 22 -13 22 -18 0 -17 -31 -18 -55 -3 -24 16 -25 20
-25 131 0 96 3 115 15 115 10 0 15 -10 15 -30z m482 -30 l3 -61 35 30 c19 17
44 30 55 31 16 0 12 -7 -20 -40 l-39 -40 42 -60 c40 -57 41 -60 20 -60 -16 0
-32 14 -53 45 -16 25 -33 45 -37 45 -5 0 -8 -20 -8 -45 0 -38 -3 -45 -20 -45
-19 0 -20 7 -20 130 0 122 1 130 20 130 16 0 19 -8 22 -60z m193 28 c1 -20 -2
-24 -11 -17 -8 7 -14 6 -17 -3 -3 -7 -6 2 -6 20 -1 27 3 33 17 30 11 -2 17
-13 17 -30z m-44 -35 c13 -16 12 -17 -3 -4 -17 13 -22 21 -14 21 2 0 10 -8 17
-17z m-1502 -19 c12 -15 21 -40 21 -55 0 -29 0 -29 -65 -29 -72 0 -83 -12 -44
-51 17 -17 30 -20 65 -16 43 4 59 -5 28 -17 -69 -27 -134 19 -134 95 0 87 82
133 129 73z m191 16 c17 -11 10 -13 -40 -10 -47 2 -75 -28 -75 -80 0 -55 26
-80 82 -80 27 0 42 -4 38 -10 -9 -15 -78 -12 -102 5 -50 35 -50 135 0 170 24
17 74 20 97 5z m265 -13 c20 -16 28 -35 32 -69 5 -42 3 -50 -25 -78 -41 -40
-83 -41 -123 -1 -84 85 27 226 116 148z m85 7 c0 -14 2 -14 22 0 24 17 38 20
38 9 0 -5 -14 -16 -30 -25 -29 -17 -30 -19 -30 -93 0 -43 -4 -75 -10 -75 -6 0
-10 40 -10 100 0 60 4 100 10 100 6 0 10 -7 10 -16z m545 -9 c20 -19 25 -34
25 -75 0 -63 -30 -100 -82 -100 -66 0 -103 56 -87 130 16 69 95 94 144 45z
m184 16 c21 -13 3 -32 -24 -25 -52 13 -88 -41 -65 -97 13 -31 39 -44 69 -34
23 7 39 -14 20 -26 -50 -32 -129 20 -129 85 0 67 32 104 90 105 14 0 31 -3 39
-8z m5370 -94 c8 -26 17 -47 21 -47 4 0 13 21 21 47 8 25 20 48 26 50 13 5
-22 -113 -38 -131 -12 -14 -18 -5 -45 69 -16 44 -20 65 -12 63 7 -3 19 -26 27
-51z m638 38 c2 -6 -9 -11 -23 -10 -38 0 -40 -20 -5 -35 69 -28 36 -101 -33
-74 -27 10 -18 22 17 20 38 -1 43 19 8 37 -36 18 -48 42 -31 62 14 17 61 17
67 0z m333 -20 c0 -35 16 -47 26 -20 4 8 13 15 22 15 13 0 13 -3 -2 -19 -16
-18 -16 -21 -1 -50 19 -38 8 -40 -22 -3 l-22 27 -1 -27 c0 -16 -4 -28 -10 -28
-6 0 -10 30 -10 70 0 40 4 70 10 70 6 0 10 -16 10 -35z m580 32 c0 -4 -34
-104 -45 -136 -3 -8 -8 -11 -11 -8 -8 7 38 147 48 147 4 0 8 -2 8 -3z m100
-16 c-5 -11 -15 -23 -20 -26 -6 -4 -1 -14 12 -25 20 -15 21 -21 10 -44 -11
-26 -34 -32 -66 -20 -28 11 -17 24 14 18 22 -5 31 -2 36 11 6 16 -3 28 -31 39
-6 2 -5 9 3 17 18 19 15 29 -8 29 -11 0 -20 5 -20 10 0 6 18 10 40 10 37 0 40
-2 30 -19z m110 0 c-5 -11 -15 -23 -20 -26 -6 -4 -2 -14 11 -24 40 -32 1 -82
-51 -66 -31 10 -23 25 10 19 22 -5 31 -2 36 11 6 16 -3 28 -31 39 -6 2 -5 9 3
17 18 19 15 29 -8 29 -11 0 -20 5 -20 10 0 6 18 10 40 10 37 0 40 -2 30 -19z
m108 7 c21 -21 13 -45 -25 -77 l-38 -30 43 -1 c23 0 42 -4 42 -10 0 -5 -22
-10 -50 -10 -62 0 -65 15 -14 63 42 40 39 62 -8 53 -26 -5 -29 -4 -18 9 15 18
51 20 68 3z m109 0 c14 -23 12 -106 -2 -118 -33 -27 -86 8 -70 46 4 11 7 27 6
37 -5 38 47 64 66 35z m123 2 c0 -5 -11 -10 -25 -10 -32 0 -32 -16 -1 -24 27
-7 41 -35 31 -65 -7 -23 -37 -35 -65 -26 -31 10 -24 23 13 21 28 -1 32 2 32
24 0 21 -4 25 -30 24 -29 -1 -30 0 -27 32 4 31 7 34 38 34 19 0 34 -4 34 -10z
m112 -42 c2 -29 2 -61 0 -70 -5 -22 -22 -24 -22 -3 0 10 -10 15 -30 15 -16 0
-30 3 -30 6 0 16 56 104 67 104 6 0 13 -22 15 -52z m128 42 c0 -5 -11 -10 -25
-10 -14 0 -29 -8 -36 -21 -9 -18 -8 -20 9 -15 12 4 28 -1 43 -13 21 -16 22
-22 11 -45 -22 -48 -92 -22 -92 34 0 37 35 80 66 80 13 0 24 -4 24 -10z m110
5 c0 -6 -60 -127 -66 -134 -2 -2 -7 -2 -10 1 -3 3 6 29 20 57 14 28 26 53 26
56 0 3 -13 5 -30 5 -16 0 -30 5 -30 10 0 6 20 10 45 10 25 0 45 -2 45 -5z
m-2109 -53 c-15 -5 -14 -59 2 -65 6 -2 9 -7 6 -11 -15 -17 -37 8 -41 47 -6 59
0 72 24 50 11 -10 15 -19 9 -21z m359 13 c9 -10 9 -15 1 -15 -15 0 -14 -57 2
-63 6 -2 9 -7 6 -11 -15 -16 -37 8 -41 44 -5 60 6 76 32 45z m-532 -7 c23 -23
13 -38 -24 -38 -46 0 -41 -23 7 -30 27 -4 30 -7 16 -13 -42 -16 -77 6 -77 48
0 37 52 59 78 33z m109 5 c14 -6 10 -9 -17 -13 -29 -4 -35 -9 -35 -30 0 -21 5
-26 33 -28 36 -4 34 -22 -3 -22 -28 0 -55 24 -55 50 0 22 25 50 45 50 7 0 22
-3 32 -7z m177 -9 c21 -20 20 -43 -1 -66 -20 -22 -46 -23 -67 -2 -31 30 -9 84
34 84 10 0 26 -7 34 -16z m86 6 c0 -4 -7 -10 -15 -14 -9 -3 -15 -19 -15 -41 0
-19 -4 -35 -10 -35 -5 0 -10 22 -10 49 0 45 2 49 25 49 14 0 25 -4 25 -8z
m274 -6 c21 -20 20 -43 -1 -66 -20 -22 -46 -23 -67 -2 -31 30 -9 84 34 84 10
0 26 -7 34 -16z m121 7 c3 -5 -9 -11 -27 -13 -28 -2 -33 -7 -33 -28 0 -21 5
-26 33 -28 36 -4 34 -22 -3 -22 -28 0 -55 24 -55 50 0 37 67 69 85 41z m242 2
c14 -6 10 -9 -17 -13 -29 -4 -35 -9 -35 -30 0 -21 5 -26 33 -28 36 -4 34 -22
-3 -22 -28 0 -55 24 -55 50 0 22 25 50 45 50 7 0 22 -3 32 -7z m107 -9 c21
-20 20 -43 -1 -66 -20 -22 -46 -23 -67 -2 -31 30 -9 84 34 84 10 0 26 -7 34
-16z m113 4 c7 -5 14 -5 18 2 10 16 42 12 49 -6 10 -25 7 -84 -4 -84 -5 0 -10
18 -10 41 0 33 -3 40 -17 37 -13 -2 -19 -14 -21 -41 -4 -50 -22 -47 -22 4 0
36 -2 40 -22 37 -19 -2 -24 -10 -26 -40 -5 -55 -22 -46 -22 10 0 48 0 49 33
49 17 0 37 -4 44 -9z m-327 -78 c0 -5 -4 -10 -10 -10 -5 0 -10 5 -10 10 0 6 5
10 10 10 6 0 10 -4 10 -10z"/>
<path d="M2150 500 c0 -5 5 -10 10 -10 6 0 10 5 10 10 0 6 -4 10 -10 10 -5 0
-10 -4 -10 -10z"/>
<path d="M536 418 c-28 -39 -21 -48 39 -48 59 0 67 9 45 51 -15 27 -64 25 -84
-3z"/>
<path d="M986 424 c-50 -50 -21 -144 44 -144 48 0 80 50 66 104 -13 53 -75 75
-110 40z"/>
<path d="M1616 408 c-22 -31 -20 -74 4 -98 26 -26 55 -25 74 2 32 46 8 118
-39 118 -13 0 -31 -10 -39 -22z"/>
<path d="M9202 373 c5 -26 38 -29 38 -4 0 15 -6 21 -21 21 -14 0 -19 -5 -17
-17z"/>
<path d="M9194 325 c-8 -21 10 -39 30 -32 22 9 20 24 -4 37 -16 9 -22 8 -26
-5z"/>
<path d="M9437 350 c-18 -29 -18 -30 2 -30 17 0 21 6 21 30 0 17 -1 30 -3 30
-1 0 -11 -13 -20 -30z"/>
<path d="M9546 331 c-11 -18 6 -42 28 -39 29 4 29 42 -1 46 -11 2 -24 -1 -27
-7z"/>
<path d="M7385 340 c-4 -6 5 -10 19 -10 14 0 26 5 26 10 0 6 -9 10 -19 10 -11
0 -23 -4 -26 -10z"/>
<path d="M7664 336 c-10 -26 4 -48 28 -44 17 2 23 10 23 28 0 18 -6 26 -23 28
-13 2 -25 -3 -28 -12z"/>
<path d="M8024 336 c-10 -26 4 -48 28 -44 17 2 23 10 23 28 0 18 -6 26 -23 28
-13 2 -25 -3 -28 -12z"/>
<path d="M8494 336 c-10 -26 4 -48 28 -44 17 2 23 10 23 28 0 18 -6 26 -23 28
-13 2 -25 -3 -28 -12z"/>
</g>
</svg>
