<?xml version="1.0" standalone="no"?>
<!DOCTYPE svg PUBLIC "-//W3C//DTD SVG 20010904//EN"
 "http://www.w3.org/TR/2001/REC-SVG-20010904/DTD/svg10.dtd">
<svg version="1.0" xmlns="http://www.w3.org/2000/svg"
 width="942.000000pt" height="560.000000pt" viewBox="0 0 371.000000 240.000000"
 preserveAspectRatio="xMidYMid meet">

<g transform="translate(0.000000,280.000000) scale(0.100000,-0.100000)"
fill="#000000" stroke="none">
<path d="M1672 2237 c-21 -10 -23 -15 -17 -55 6 -38 2 -53 -25 -104 -31 -57
-33 -78 -15 -120 4 -11 3 -18 -4 -18 -6 0 -11 6 -11 13 0 6 -4 19 -10 27 -7
12 -12 11 -30 -5 -17 -15 -37 -20 -79 -20 -61 0 -90 -20 -91 -61 0 -33 -53
-98 -102 -127 -25 -14 -51 -33 -59 -43 -12 -15 -9 -20 25 -49 27 -22 37 -38
33 -49 -9 -23 -25 -20 -29 6 -2 12 -9 23 -16 26 -10 3 -11 0 -3 -14 5 -11 12
-27 15 -36 8 -25 20 -22 63 15 26 23 35 27 30 13 -7 -17 -6 -18 17 -3 21 14
25 14 30 2 3 -9 -1 -15 -10 -15 -11 0 -14 -5 -10 -16 4 -12 2 -15 -9 -10 -8 3
-15 1 -15 -4 0 -5 -13 -7 -29 -4 -28 6 -58 -15 -33 -24 23 -7 12 -22 -12 -16
-32 8 -79 -23 -73 -48 3 -10 1 -18 -4 -18 -5 0 -9 -7 -9 -16 0 -8 -5 -12 -10
-9 -6 4 -18 4 -27 1 -12 -5 -13 -9 -3 -21 10 -12 9 -15 -7 -15 -31 0 -87 -128
-80 -182 8 -57 49 -148 68 -148 8 0 20 -5 25 -10 6 -6 39 -15 73 -21 45 -8 73
-20 96 -41 18 -16 39 -27 47 -26 7 2 12 -3 11 -9 -2 -7 1 -13 7 -13 11 0 1
-32 -14 -43 -15 -10 24 -39 45 -34 9 3 24 -4 33 -14 15 -18 14 -19 -2 -20 -9
-1 -21 0 -27 1 -63 16 -92 17 -117 4 -16 -8 -28 -17 -28 -20 0 -15 22 -44 34
-44 7 0 28 -7 46 -16 35 -18 45 -17 255 20 94 16 232 30 258 27 14 -2 18 3 15
21 -2 16 -12 25 -33 29 l-30 7 36 1 c19 0 40 6 46 12 8 8 23 5 56 -9 25 -11
55 -18 66 -15 24 6 26 14 9 32 -11 11 -10 13 4 8 10 -3 23 -1 30 6 24 22 54
18 67 -9 14 -31 5 -50 -15 -34 -7 7 -19 10 -26 7 -9 -3 -6 -7 7 -12 11 -5 28
-15 37 -23 16 -13 24 -13 75 2 101 30 98 20 50 144 l-32 83 -45 -1 c-25 -1
-49 -1 -55 -1 -13 1 47 38 69 42 14 3 11 13 -20 57 -20 29 -34 55 -30 59 3 4
12 1 18 -5 18 -18 28 -15 28 8 0 11 5 20 11 20 6 0 25 16 42 35 17 19 37 35
45 35 12 0 12 2 1 17 -13 15 -12 15 9 4 20 -11 27 -10 43 5 18 16 18 17 -7 47
-26 31 -25 49 2 26 14 -11 18 -11 30 6 13 17 14 17 14 1 0 -12 6 -16 23 -14
34 5 35 51 2 90 l-27 32 27 9 c16 6 24 14 21 23 -3 8 1 14 9 14 11 0 12 6 3
33 -7 17 -18 38 -25 45 -7 7 -13 20 -13 29 0 8 -8 27 -19 41 -10 15 -22 47
-26 72 -4 25 -9 48 -12 52 -7 12 -49 -9 -106 -53 -30 -23 -66 -43 -81 -45 -23
-2 -30 3 -43 34 -8 20 -22 41 -29 45 -8 5 -12 12 -9 17 3 6 -9 19 -27 30 -18
11 -26 20 -19 20 9 0 -2 15 -23 35 -21 19 -43 35 -48 35 -5 0 -6 5 -3 10 4 6
1 18 -6 27 -8 8 -15 31 -16 50 -3 47 -26 80 -63 88 -16 4 -39 20 -51 36 -38
53 -103 72 -157 46z"/>
<path d="M2473 1360 c-44 -26 -45 -60 -3 -60 41 0 87 44 70 65 -16 20 -29 19
-67 -5z"/>
<path d="M2556 1317 c-16 -12 -17 -16 -5 -35 16 -25 29 -29 29 -8 0 7 7 19 15
26 33 28 -3 43 -39 17z"/>
<path d="M2501 1291 c-8 -5 -22 -8 -32 -6 -10 2 -23 -3 -30 -11 -6 -8 -18 -14
-25 -14 -17 0 -18 -12 -1 -29 10 -10 8 -15 -7 -27 -26 -18 -3 -18 33 1 16 8
47 17 70 21 45 7 51 17 22 36 -10 6 -17 18 -14 25 6 15 3 16 -16 4z"/>
<path d="M2333 1267 c-29 -20 -62 -81 -50 -93 2 -2 25 4 51 15 36 16 46 26 48
46 0 14 1 30 2 37 2 19 -18 18 -51 -5z"/>
<path d="M2520 1150 c0 -22 -4 -40 -10 -40 -15 0 -12 -26 5 -40 22 -18 61 11
67 49 4 25 1 31 -13 31 -24 0 -35 20 -18 31 10 6 8 9 -8 9 -20 0 -23 -5 -23
-40z"/>
<path d="M2445 1170 c3 -5 2 -18 -4 -28 -7 -13 -5 -24 8 -40 16 -22 17 -23 34
-5 20 23 26 64 10 70 -6 2 -13 -4 -16 -14 -4 -16 -6 -15 -12 5 -4 12 -12 22
-17 22 -5 0 -6 -4 -3 -10z"/>
<path d="M2336 1155 c-7 -19 19 -62 28 -47 3 6 0 22 -8 36 -11 22 -15 24 -20
11z"/>
<path d="M2380 1124 c0 -8 5 -12 10 -9 6 4 8 11 5 16 -9 14 -15 11 -15 -7z"/>
<path d="M2365 1080 c-3 -5 -1 -10 4 -10 6 0 11 5 11 10 0 6 -2 10 -4 10 -3 0
-8 -4 -11 -10z"/>
<path d="M2340 1043 c0 -12 5 -25 11 -28 17 -11 18 -2 4 25 -14 24 -14 24 -15
3z"/>
<path d="M2396 1052 c-3 -5 8 -19 24 -31 24 -17 34 -19 50 -11 27 15 25 29 -6
40 -31 12 -61 13 -68 2z"/>
<path d="M2342 968 c-20 -20 -15 -41 8 -35 23 6 26 -5 6 -22 -13 -11 -11 -51
3 -51 10 0 51 57 51 70 0 12 -36 50 -48 50 -4 0 -13 -5 -20 -12z"/>
<path d="M1153 95 c0 -27 2 -38 4 -22 2 15 8 27 13 27 5 0 11 -12 13 -27 4
-26 4 -26 6 5 1 22 -4 32 -13 32 -8 0 -17 8 -19 18 -3 9 -5 -5 -4 -33z"/>
<path d="M1652 95 c0 -27 2 -43 5 -35 3 8 13 24 22 35 15 18 15 19 -1 7 -14
-12 -17 -10 -21 15 -2 16 -4 6 -5 -22z"/>
<path d="M1270 120 c-4 -25 1 -54 10 -63 4 -5 5 3 3 17 -4 19 -1 26 11 26 9 0
16 -8 16 -19 0 -11 4 -22 9 -25 5 -4 7 3 4 15 -3 12 -1 24 4 28 7 4 6 11 -3
19 -8 7 -14 8 -14 2 0 -14 -27 -13 -33 3 -4 8 -6 8 -7 -3z"/>
<path d="M1499 118 c-2 -25 3 -53 11 -62 5 -5 6 1 3 14 -3 12 -1 25 4 29 7 4
6 11 -3 19 -11 10 -14 10 -15 0z"/>
<path d="M2050 125 c-1 -5 -1 -21 0 -34 1 -13 -4 -28 -12 -32 -9 -6 -3 -9 17
-9 17 0 25 4 18 8 -6 4 -13 23 -16 42 -2 19 -5 31 -7 25z"/>
<path d="M2110 125 c-1 -5 -1 -21 0 -34 1 -13 -4 -28 -12 -32 -9 -6 -3 -9 17
-9 17 0 25 4 18 8 -6 4 -13 23 -16 42 -2 19 -5 31 -7 25z"/>
<path d="M2154 115 c-4 -8 -1 -22 6 -30 6 -8 9 -19 5 -25 -3 -5 -4 -10 -1 -10
10 0 33 55 29 68 -6 17 -32 15 -39 -3z m28 -10 c0 -5 -5 -11 -11 -13 -6 -2
-11 4 -11 13 0 9 5 15 11 13 6 -2 11 -8 11 -13z"/>
<path d="M2217 123 c-3 -5 -4 -21 -3 -38 1 -23 6 -30 21 -30 11 0 20 6 19 13
-1 6 -2 23 -2 37 -2 23 -25 35 -35 18z m23 -13 c0 -5 -4 -10 -10 -10 -5 0 -10
5 -10 10 0 6 5 10 10 10 6 0 10 -4 10 -10z m2 -35 c0 -5 -5 -11 -11 -13 -6 -2
-11 4 -11 13 0 9 5 15 11 13 6 -2 11 -8 11 -13z"/>
<path d="M2290 125 c-1 -5 -1 -21 0 -34 1 -13 -4 -28 -12 -32 -9 -6 -3 -9 17
-9 17 0 25 4 18 8 -6 4 -13 23 -16 42 -2 19 -5 31 -7 25z"/>
<path d="M2330 110 c-8 -14 -8 -26 0 -40 13 -25 36 -26 45 -2 6 16 7 16 16 0
22 -39 59 -4 44 42 -8 25 -31 26 -44 3 -9 -17 -10 -17 -16 0 -9 23 -32 22 -45
-3z m35 -20 c0 -13 -5 -25 -11 -27 -14 -5 -25 22 -17 42 8 23 28 12 28 -15z
m60 0 c0 -27 -20 -38 -28 -15 -8 20 3 47 17 42 6 -2 11 -14 11 -27z"/>
<path d="M2467 123 c22 -4 22 -6 8 -33 -22 -42 -17 -51 5 -10 25 46 25 50 -7
49 -24 -2 -25 -2 -6 -6z"/>
<path d="M2517 123 c-11 -11 -8 -43 4 -43 6 0 9 -7 5 -15 -8 -22 0 -18 18 9 9
14 13 32 10 40 -6 16 -26 21 -37 9z m25 -18 c0 -5 -5 -11 -11 -13 -6 -2 -11 4
-11 13 0 9 5 15 11 13 6 -2 11 -8 11 -13z"/>
<path d="M2587 123 c22 -4 22 -6 8 -33 -22 -42 -17 -51 5 -10 25 46 25 50 -7
49 -24 -2 -25 -2 -6 -6z"/>
<path d="M1100 93 c0 -10 4 -14 8 -8 4 6 11 13 16 18 5 4 2 7 -7 7 -10 0 -17
-8 -17 -17z"/>
<path d="M1211 83 c-1 -27 3 -33 19 -33 16 0 20 6 19 33 -2 30 -2 30 -6 5 -6
-36 -20 -36 -26 0 -4 25 -4 25 -6 -5z"/>
<path d="M1357 104 c-13 -13 -7 -24 14 -24 11 0 19 5 17 12 -5 14 -22 21 -31
12z"/>
<path d="M1411 78 c2 -28 2 -29 6 -8 3 14 10 28 17 32 7 5 5 8 -6 8 -14 0 -18
-8 -17 -32z"/>
<path d="M1450 93 c0 -10 4 -14 8 -8 4 6 11 13 16 18 5 4 2 7 -7 7 -10 0 -17
-8 -17 -17z"/>
<path d="M1544 95 c-8 -21 2 -45 20 -45 7 0 16 7 20 15 8 21 -3 45 -20 45 -8
0 -17 -7 -20 -15z m31 -15 c0 -7 -6 -15 -12 -17 -8 -3 -13 4 -13 17 0 13 5 20
13 18 6 -3 12 -11 12 -18z"/>
<path d="M1604 95 c-8 -20 2 -45 18 -44 10 0 10 2 1 6 -7 2 -13 13 -13 23 0
10 6 21 13 23 9 4 9 6 -1 6 -7 1 -15 -6 -18 -14z"/>
<path d="M1744 95 c-8 -20 2 -45 18 -44 10 0 10 2 1 6 -7 2 -13 13 -13 23 0
10 6 21 13 23 9 4 9 6 -1 6 -7 1 -15 -6 -18 -14z"/>
<path d="M1794 95 c-8 -21 2 -45 20 -45 19 0 29 29 15 46 -15 18 -28 18 -35
-1z m31 -15 c0 -7 -6 -15 -12 -17 -8 -3 -13 4 -13 17 0 13 5 20 13 18 6 -3 12
-11 12 -18z"/>
<path d="M1851 77 c2 -31 2 -31 6 -4 2 15 8 27 13 27 5 0 11 -12 13 -27 l4
-28 2 28 c0 15 5 27 10 27 5 0 12 -12 14 -27 4 -27 4 -27 6 4 1 29 -1 31 -34
31 -33 0 -35 -2 -34 -31z"/>
<path d="M1112 65 c-11 -12 -10 -15 3 -15 8 0 15 7 15 15 0 18 -2 18 -18 0z"/>
<path d="M1462 65 c-11 -12 -10 -15 3 -15 8 0 15 7 15 15 0 18 -2 18 -18 0z"/>
<path d="M1670 71 c0 -5 5 -13 10 -16 6 -3 10 -2 10 4 0 5 -4 13 -10 16 -5 3
-10 2 -10 -4z"/>
<path d="M1358 58 c5 -5 16 -8 23 -6 8 3 3 7 -10 11 -17 4 -21 3 -13 -5z"/>
</g>
</svg>
