<?xml version="1.0" standalone="no"?>
<!DOCTYPE svg PUBLIC "-//W3C//DTD SVG 20010904//EN"
 "http://www.w3.org/TR/2001/REC-SVG-20010904/DTD/svg10.dtd">
<svg version="1.0" xmlns="http://www.w3.org/2000/svg"
 width="800.000000pt" height="845.000000pt" viewBox="0 0 1600.000000 1490.000000"
 preserveAspectRatio="xMidYMid meet">

<g transform="translate(0.000000,1690.000000) scale(0.100000,-0.100000)"
fill="#000000" stroke="none">
<path d="M9572 15393 c-14 -26 -55 -192 -102 -403 -61 -275 -78 -341 -116
-458 -48 -147 -91 -232 -173 -340 -82 -107 -92 -129 -125 -264 -19 -74 -42
-131 -93 -226 -37 -70 -80 -152 -94 -182 -29 -61 -39 -72 -101 -103 -61 -31
-80 -74 -66 -149 8 -49 6 -73 -17 -175 -56 -243 -81 -304 -164 -395 -53 -58
-65 -81 -82 -156 -6 -27 -29 -71 -59 -111 -49 -65 -173 -291 -370 -676 -124
-241 -188 -357 -395 -710 -175 -298 -307 -548 -355 -669 -57 -144 -71 -228
-69 -404 l1 -157 -37 -95 c-38 -93 -38 -98 -40 -235 -1 -120 -5 -153 -28 -228
-39 -130 -52 -248 -39 -353 14 -103 35 -151 81 -181 64 -43 118 -25 274 93
177 134 302 177 485 167 166 -9 199 21 275 247 l41 125 -3 145 c-12 432 -7
475 61 599 34 62 197 311 204 311 6 0 -72 -155 -102 -202 -29 -46 -30 -74 -4
-88 18 -10 29 -3 82 47 l62 58 -36 -52 c-90 -127 -114 -211 -79 -278 l21 -40
-22 -30 c-22 -28 -23 -39 -23 -190 0 -183 1 -179 -120 -431 -50 -105 -67 -152
-84 -240 -31 -157 -28 -150 -57 -119 -37 40 -84 55 -174 55 -199 0 -385 -82
-439 -193 -12 -24 -33 -84 -47 -133 -50 -172 -92 -233 -235 -345 -190 -147
-194 -154 -187 -356 4 -130 11 -156 51 -200 35 -39 144 -25 255 33 15 8 35 14
44 14 19 0 72 -70 60 -81 -4 -4 -54 -24 -111 -43 -157 -55 -184 -73 -320 -219
-112 -119 -127 -140 -155 -212 -31 -77 -34 -82 -102 -126 -87 -58 -129 -117
-189 -267 -61 -152 -76 -221 -76 -356 0 -304 135 -582 331 -681 28 -14 113
-42 188 -61 169 -42 294 -101 381 -180 106 -96 133 -165 108 -273 -10 -43 -12
-73 -6 -95 5 -17 9 -31 9 -32 0 0 -47 1 -105 4 -121 5 -155 -4 -184 -52 -66
-106 -10 -256 103 -277 35 -6 66 -23 113 -60 l64 -52 92 6 c118 8 476 50 637
76 151 24 387 46 690 62 124 7 235 16 248 20 15 6 22 17 22 36 0 26 -27 132
-46 177 -7 18 -3 18 72 11 43 -4 121 -20 172 -36 132 -41 172 -38 230 14 16
15 22 32 22 61 0 36 3 41 23 42 12 0 43 7 68 14 57 17 93 8 135 -34 24 -24 34
-44 39 -82 12 -89 16 -104 42 -134 27 -33 60 -38 110 -19 15 6 73 17 127 25
168 24 237 84 244 214 4 68 -1 92 -64 300 -14 47 -32 141 -39 211 -16 139 -35
199 -64 199 -10 0 -61 -20 -113 -45 -113 -53 -171 -67 -269 -63 l-74 3 60 13
c82 18 174 51 208 74 37 26 67 88 67 137 0 35 -8 48 -70 116 l-71 75 7 49 c4
29 2 57 -5 69 -10 18 -5 23 42 50 28 16 73 52 98 79 33 34 59 52 92 60 39 11
48 18 66 56 12 24 21 51 21 60 0 14 39 66 109 145 13 14 32 22 53 22 37 0 81
24 162 91 35 28 82 54 124 68 83 28 140 66 149 99 3 14 1 59 -6 101 -15 101
-15 104 7 92 52 -29 56 -35 38 -69 -25 -48 -20 -77 17 -108 63 -54 109 -67
221 -62 120 4 178 29 211 90 12 22 30 39 45 43 14 4 35 16 47 27 19 17 27 19
50 10 51 -19 82 -22 106 -11 22 10 31 6 80 -29 88 -66 189 -129 350 -219 204
-115 330 -193 400 -248 49 -39 57 -50 57 -79 0 -42 -64 -122 -138 -172 -28
-18 -60 -47 -72 -64 -12 -18 -47 -59 -76 -93 -98 -112 -105 -187 -26 -259 l37
-33 -35 -1 c-73 -2 -140 -63 -140 -127 0 -32 47 -86 77 -88 98 -6 168 45 168
123 0 22 -8 45 -20 59 -20 22 -20 22 0 15 88 -35 162 -32 255 10 66 30 140
101 140 135 0 12 -18 54 -40 94 -22 40 -40 81 -40 92 0 22 46 141 62 161 44
52 133 -48 158 -177 8 -44 7 -62 -10 -111 -31 -91 -28 -106 32 -160 51 -48 51
-48 44 -96 -6 -46 -49 -154 -61 -154 -4 0 -3 36 1 79 9 110 1 147 -39 171 -71
44 -133 15 -281 -128 -61 -60 -124 -113 -141 -119 -16 -6 -65 -16 -108 -22
-105 -15 -145 -38 -262 -151 -140 -135 -242 -201 -385 -249 -36 -12 -81 -31
-102 -44 -20 -12 -57 -35 -83 -51 -73 -45 -112 -54 -261 -61 -76 -3 -160 -11
-186 -17 -48 -10 -150 -74 -343 -214 -99 -72 -223 -135 -300 -154 -27 -6 -100
-16 -162 -21 -129 -10 -164 -24 -243 -94 -96 -85 -129 -93 -257 -60 -111 29
-135 28 -235 -16 -36 -16 -90 -34 -120 -40 -130 -26 -140 -31 -198 -90 -48
-48 -65 -59 -112 -69 -77 -17 -130 -49 -150 -88 -14 -29 -15 -58 -11 -210 3
-97 10 -183 16 -189 15 -20 40 -16 119 21 89 40 350 169 398 195 29 16 101 50
255 122 22 10 76 26 224 65 51 13 130 39 175 58 44 18 161 63 258 100 173 65
372 151 733 316 556 254 734 312 1630 530 108 27 267 50 341 50 34 0 96 -7
137 -16 104 -21 145 -9 212 61 59 62 70 67 194 74 88 6 95 8 115 34 18 24 21
43 21 116 l0 88 -77 156 c-106 215 -117 221 -319 170 -68 -17 -115 -24 -134
-19 -15 4 -50 29 -78 55 l-50 48 -7 84 c-5 52 -16 103 -30 133 -19 42 -21 54
-11 86 20 69 63 107 206 185 39 21 103 60 143 87 120 81 171 95 231 61 29 -17
31 -17 47 -1 17 16 16 24 -1 137 -31 204 -16 228 171 275 122 31 154 45 183
82 28 36 27 81 -5 268 -31 176 -29 264 7 466 20 113 22 159 23 470 1 388 -3
449 -43 675 -16 88 -33 192 -36 232 l-7 72 71 35 c39 20 137 54 217 75 86 23
161 49 184 65 40 26 93 107 153 234 l32 67 0 215 c0 199 -2 218 -21 260 -29
60 -62 93 -175 177 -51 39 -157 126 -234 193 -77 68 -210 175 -295 238 -85 63
-227 169 -315 235 -101 76 -169 121 -185 121 -20 1 -30 -10 -57 -64 -29 -58
-33 -74 -33 -151 0 -52 -6 -104 -16 -133 -14 -40 -15 -55 -5 -88 7 -22 10 -42
8 -45 -9 -8 -121 127 -163 195 -22 37 -71 126 -109 197 -37 72 -72 136 -78
143 -7 9 -4 25 8 52 47 105 -53 316 -160 336 -59 11 -173 -30 -182 -64 -5 -20
0 -30 20 -47 34 -26 34 -40 0 -54 -42 -17 -163 -40 -179 -34 -7 3 -16 21 -19
41 -9 60 -44 119 -79 135 -17 8 -68 18 -114 22 -93 7 -186 31 -297 75 -95 38
-160 39 -231 6 -78 -36 -134 -118 -134 -198 0 -18 -8 -27 -36 -37 -19 -7 -40
-23 -46 -37 -6 -13 -15 -24 -19 -24 -13 0 -33 47 -63 142 -19 64 -33 92 -51
104 -27 17 -39 13 -109 -38 -30 -21 -50 -28 -86 -28 -33 0 -55 -6 -74 -21 -20
-16 -30 -19 -39 -10 -16 16 -63 13 -78 -6 -9 -11 -14 -44 -14 -99 l0 -84 -49
-47 c-58 -58 -71 -86 -56 -124 11 -25 77 -79 97 -79 5 0 25 -5 45 -10 60 -17
68 -31 68 -118 0 -42 5 -119 10 -170 11 -113 37 -173 92 -209 l39 -26 -23 -25
c-45 -49 -100 -82 -136 -82 -30 0 -46 11 -124 87 l-89 87 47 23 c26 12 55 30
64 38 33 30 73 117 73 158 0 56 -29 78 -200 155 -76 34 -144 66 -152 71 -12 7
-9 18 14 57 35 60 39 120 10 161 -12 15 -27 47 -33 70 -16 55 -56 85 -185 137
-56 23 -133 61 -172 84 -100 61 -133 69 -182 46 -49 -24 -67 -73 -59 -160 11
-128 74 -226 173 -270 49 -22 191 -24 255 -5 26 8 50 12 54 8 4 -3 -5 -22 -20
-42 -23 -29 -33 -35 -65 -35 -89 0 -192 -52 -205 -104 -3 -13 2 -51 13 -85 10
-33 16 -63 13 -66 -8 -8 -82 -6 -82 3 -1 4 -9 49 -19 101 -22 106 -40 137 -97
166 -35 18 -39 24 -36 52 2 17 -4 45 -12 62 -33 62 -175 132 -276 134 -88 2
-131 -29 -249 -182 -55 -71 -112 -139 -127 -150 -41 -32 -119 -52 -178 -45
-84 10 -181 -47 -208 -122 -7 -20 -19 -34 -29 -34 -16 0 -16 4 -3 47 18 59 18
108 -1 169 -21 70 -19 89 13 109 15 10 49 41 75 69 40 43 46 47 37 23 -5 -16
-10 -50 -10 -76 0 -62 25 -95 84 -110 119 -30 195 -2 265 97 25 36 75 99 110
141 70 83 91 123 91 174 0 30 3 34 44 45 46 12 48 14 158 152 54 67 104 102
185 129 79 26 96 20 171 -58 64 -66 76 -71 237 -91 119 -15 146 -6 196 63 58
79 82 136 76 184 l-5 43 38 0 c49 0 72 -21 100 -93 32 -80 63 -101 163 -106
99 -4 139 4 177 35 39 33 41 83 5 137 l-26 37 31 0 c31 0 69 30 97 75 10 18
12 16 12 -19 2 -85 77 -187 173 -235 101 -51 128 -38 128 62 0 81 22 126 75
151 32 16 62 20 160 20 112 1 124 -1 176 -27 32 -15 105 -70 165 -121 139
-122 193 -150 276 -144 51 4 65 9 85 32 29 34 29 64 0 107 -30 44 -74 73 -153
99 -42 14 -70 30 -81 47 -16 24 -15 25 38 79 66 67 64 73 -49 132 -84 44 -84
43 -97 123 -8 55 -51 89 -119 96 -44 5 -56 9 -56 23 0 10 11 25 25 34 35 23
31 50 -13 104 -20 26 -44 58 -51 72 -24 41 -26 170 -6 253 25 99 23 159 -10
257 l-28 83 29 21 c56 40 74 64 74 99 0 56 -48 137 -112 187 -47 37 -53 46
-37 48 22 4 55 -16 164 -97 l70 -53 -3 -71 c-4 -86 7 -109 91 -197 60 -61 77
-70 94 -47 16 19 53 125 53 150 0 14 11 28 31 39 44 26 71 94 79 208 4 52 13
109 19 125 19 46 61 84 100 91 111 20 168 106 107 163 -23 21 -23 23 -8 64 21
59 11 91 -41 124 -23 15 -76 56 -117 92 -95 82 -178 120 -372 172 -84 22 -200
55 -258 74 -58 18 -139 36 -180 40 -132 12 -257 58 -298 109 -13 17 -23 54
-30 112 -15 111 -34 147 -113 212 -110 90 -178 132 -215 132 -44 0 -95 -45
-134 -119 -35 -66 -74 -111 -96 -111 -8 0 -43 12 -77 26 -225 95 -1057 414
-1080 414 -9 0 -20 -8 -25 -17z m258 -149 c80 -31 172 -66 205 -79 33 -13 137
-52 231 -88 94 -36 236 -93 317 -126 179 -75 205 -77 257 -21 21 23 51 66 68
98 17 31 42 67 55 80 l24 23 102 -76 c55 -42 108 -87 117 -100 9 -14 23 -69
31 -122 8 -54 22 -110 32 -125 44 -70 181 -130 336 -147 55 -6 134 -22 175
-35 41 -13 127 -38 190 -56 186 -51 283 -81 320 -100 20 -10 75 -52 124 -94
48 -41 97 -78 107 -81 23 -7 23 -9 5 -60 -15 -42 -8 -75 21 -108 21 -22 17
-25 -54 -43 -112 -30 -169 -116 -179 -276 -8 -108 -23 -153 -57 -169 -29 -13
-43 -39 -51 -93 -3 -21 -8 -41 -11 -44 -8 -9 -62 47 -75 79 -9 22 -10 40 -1
73 20 82 18 86 -71 151 -166 122 -189 135 -239 135 -26 0 -68 -9 -93 -20 -77
-33 -61 -71 67 -159 52 -36 85 -77 93 -118 5 -25 0 -31 -40 -57 -67 -42 -68
-53 -18 -215 l25 -84 -17 -71 c-40 -163 -31 -281 29 -381 33 -54 34 -58 20
-85 -40 -78 9 -150 103 -150 47 0 59 -12 71 -73 12 -65 31 -89 94 -122 l55
-29 -29 -33 c-51 -58 -39 -136 26 -179 14 -9 56 -28 93 -41 63 -23 112 -56
112 -75 0 -16 -81 -8 -120 12 -22 11 -72 50 -112 86 -117 106 -180 149 -258
174 -62 20 -84 22 -173 17 -117 -6 -189 -27 -230 -65 -39 -36 -47 -53 -61
-128 l-11 -65 -42 30 c-23 17 -54 52 -70 78 -27 46 -28 53 -29 193 -1 80 -2
151 -3 158 0 6 -12 12 -25 12 -39 0 -81 -61 -106 -154 -24 -89 -36 -116 -50
-116 -5 0 -25 14 -43 30 -40 35 -62 38 -76 11 -16 -29 5 -128 39 -183 24 -39
26 -49 15 -58 -19 -16 -170 -17 -188 -2 -8 7 -24 39 -36 72 -27 73 -64 107
-129 115 -67 9 -68 10 -97 55 -19 30 -32 40 -47 38 -40 -6 -45 -31 -20 -125
12 -49 22 -96 22 -106 0 -24 -26 -73 -63 -121 l-30 -38 -76 7 c-150 14 -158
17 -226 88 -68 72 -98 84 -181 74 -54 -6 -162 -57 -210 -100 -20 -16 -61 -64
-91 -105 -61 -81 -95 -102 -163 -102 -49 0 -58 -16 -40 -70 18 -54 8 -80 -58
-157 -32 -38 -78 -96 -102 -131 -51 -74 -80 -92 -148 -92 -102 0 -106 53 -13
167 90 111 130 217 116 309 -8 53 -47 104 -80 104 -29 0 -40 -15 -37 -51 3
-33 -43 -163 -71 -204 -39 -56 -169 -200 -210 -231 -69 -54 -81 -99 -51 -188
11 -32 15 -65 11 -101 -5 -54 -12 -67 -76 -163 -28 -42 -33 -57 -25 -70 18
-28 42 -25 95 9 50 32 51 32 80 15 27 -16 32 -16 54 -2 22 15 45 69 45 108 0
9 17 30 37 47 35 29 43 31 118 31 153 0 205 35 369 247 89 115 124 139 188
129 57 -9 162 -60 182 -87 16 -23 16 -25 -19 -52 -23 -19 -35 -37 -35 -53 0
-28 4 -30 82 -39 85 -9 96 -22 117 -144 24 -133 35 -146 129 -146 118 0 144
39 107 161 -8 27 -15 50 -15 51 0 2 11 10 25 19 14 9 59 20 101 24 62 6 80 12
103 34 l29 27 0 -28 c0 -37 52 -82 139 -118 38 -16 103 -46 146 -67 69 -34 77
-41 71 -61 -17 -58 -47 -88 -123 -125 -106 -52 -106 -61 1 -169 129 -132 172
-163 222 -163 58 0 120 33 204 111 91 82 92 97 11 140 -91 49 -101 74 -110
274 -6 155 -12 198 -31 221 -4 6 -34 19 -66 28 -78 24 -111 37 -118 47 -3 5
19 31 48 58 52 49 52 49 56 120 4 69 5 71 31 71 15 0 42 11 61 25 25 18 47 25
80 25 33 0 55 7 80 25 19 14 37 22 40 18 4 -5 17 -44 30 -87 27 -87 66 -140
115 -152 39 -10 79 14 83 49 2 18 9 27 22 27 10 0 32 12 49 26 27 22 31 32 31
73 0 84 68 151 153 151 21 0 97 -20 170 -44 92 -31 162 -48 232 -56 113 -12
130 -22 139 -83 9 -57 39 -105 72 -113 37 -10 131 1 198 22 77 24 116 61 116
107 0 20 -5 39 -10 42 -17 11 -1 25 28 25 42 0 71 -27 103 -94 34 -72 39 -126
10 -126 -10 0 -25 -7 -32 -16 -11 -14 -10 -21 5 -48 11 -17 59 -107 109 -201
104 -197 154 -277 230 -360 97 -107 165 -123 188 -45 9 30 9 49 -1 84 -11 39
-10 51 4 86 11 28 16 68 15 124 -1 71 7 112 27 135 1 1 40 -26 86 -61 46 -36
175 -132 288 -215 113 -83 273 -210 355 -283 83 -73 179 -153 215 -178 87 -61
147 -119 173 -167 20 -37 22 -53 21 -216 -1 -112 -6 -191 -14 -215 -23 -68
-113 -225 -142 -245 -15 -11 -90 -36 -165 -55 -169 -42 -318 -110 -334 -152
-12 -32 1 -161 37 -362 13 -74 27 -151 30 -170 3 -19 8 -199 9 -400 3 -350 2
-372 -22 -530 -33 -213 -34 -355 -5 -512 12 -64 22 -137 22 -162 l0 -45 -72
-21 c-226 -66 -235 -69 -267 -105 -17 -20 -34 -48 -38 -63 -9 -37 -10 -126 0
-188 l7 -51 -49 -6 c-57 -7 -106 -30 -206 -97 -38 -25 -110 -68 -160 -95 -189
-102 -260 -230 -195 -355 15 -30 24 -68 27 -115 3 -38 9 -82 15 -98 13 -34
112 -125 155 -144 45 -18 72 -17 179 13 52 14 111 24 132 22 37 -3 37 -3 107
-142 68 -136 70 -142 70 -215 l0 -76 -100 -5 c-117 -7 -141 -17 -206 -89 -52
-58 -58 -59 -169 -35 -64 13 -93 14 -198 4 -67 -6 -155 -17 -195 -25 -87 -17
-700 -167 -777 -191 -385 -118 -580 -191 -905 -339 -416 -191 -580 -261 -815
-352 -252 -97 -421 -156 -500 -174 -79 -18 -209 -74 -485 -212 -148 -74 -279
-138 -291 -141 -20 -6 -21 -2 -28 130 -4 90 -3 140 4 149 6 7 36 20 68 30 31
9 72 21 89 27 20 5 51 31 78 62 46 54 72 67 165 81 25 4 80 22 123 41 90 39
117 41 212 14 137 -39 198 -24 315 75 72 62 96 70 223 80 196 14 302 60 548
236 223 159 226 161 424 169 184 8 211 15 323 89 44 29 111 61 157 76 140 45
247 116 395 261 103 101 134 119 225 129 121 13 150 29 270 145 124 120 150
140 183 140 22 0 23 -1 20 -116 -3 -111 -2 -116 21 -135 57 -46 130 -1 169
103 46 125 37 195 -31 253 l-41 35 17 48 c60 167 -53 412 -191 412 -36 0 -50
-6 -76 -32 -35 -35 -96 -178 -96 -224 0 -15 19 -62 42 -106 l43 -79 -25 -20
c-14 -10 -49 -31 -78 -45 -43 -22 -62 -26 -110 -22 -66 5 -127 32 -156 71 -19
25 -19 29 -4 59 9 18 33 53 55 78 21 25 49 60 62 78 12 18 48 50 79 71 137 93
194 213 142 298 -33 54 -175 153 -419 290 -210 118 -317 184 -417 259 -54 41
-101 74 -105 74 -4 0 -17 -12 -28 -26 l-20 -26 -50 27 c-57 32 -83 28 -101
-15 -11 -27 -17 -30 -55 -30 -48 0 -70 -19 -62 -51 20 -76 -205 -119 -291 -55
l-31 22 20 30 c40 61 21 91 -102 164 -40 24 -79 40 -92 38 -21 -3 -22 -8 -22
-83 0 -44 4 -109 9 -146 l8 -65 -39 -17 c-21 -9 -64 -26 -96 -38 -36 -13 -86
-44 -129 -80 -39 -32 -78 -59 -87 -59 -10 0 -40 -7 -67 -15 -38 -11 -54 -22
-68 -47 -10 -18 -34 -49 -52 -68 -19 -20 -44 -62 -57 -95 -21 -54 -26 -60 -67
-73 -29 -10 -61 -33 -98 -73 -58 -61 -110 -89 -167 -89 -24 0 -37 -6 -45 -20
-9 -16 -4 -26 26 -60 34 -37 36 -43 30 -84 -9 -60 9 -99 78 -166 57 -55 67
-81 46 -121 -16 -29 -75 -54 -185 -79 -113 -25 -250 -89 -261 -122 -12 -39 12
-46 186 -53 151 -7 172 -6 243 14 43 12 104 35 137 51 69 35 67 37 76 -83 7
-92 20 -149 70 -317 67 -221 41 -297 -109 -322 -34 -5 -93 -16 -131 -24 -80
-16 -82 -15 -91 56 -15 108 -62 176 -144 205 -54 19 -92 19 -136 1 -19 -8 -50
-12 -72 -9 -50 7 -66 -12 -73 -86 -5 -54 -6 -56 -37 -59 -18 -2 -69 9 -115 24
-96 31 -297 46 -336 25 -28 -15 -28 -34 3 -115 39 -105 40 -103 -67 -110 -506
-34 -696 -52 -868 -81 -47 -8 -132 -19 -190 -25 -58 -6 -174 -20 -259 -31
l-154 -20 -56 44 c-69 54 -93 67 -125 67 -37 0 -76 39 -83 82 -7 44 11 95 36
103 9 3 71 1 137 -5 156 -13 160 -13 178 6 23 22 20 36 -18 86 l-34 44 13 58
c28 120 -12 224 -125 329 -101 94 -233 158 -419 206 -169 43 -218 68 -285 142
-161 179 -228 524 -147 753 72 203 120 283 200 334 73 46 92 70 127 158 24 58
46 87 141 189 122 128 148 146 288 196 147 53 185 75 185 107 -1 42 -78 143
-122 160 -33 13 -43 13 -80 -1 -189 -69 -190 -69 -207 -52 -13 12 -17 43 -19
151 -4 161 -5 159 105 240 113 83 216 191 252 262 17 33 42 103 57 155 32 116
58 163 109 198 78 54 277 98 358 79 20 -4 55 -24 77 -44 89 -80 141 -31 175
164 15 89 29 127 74 218 53 105 88 186 117 272 16 45 18 80 16 195 l-2 141 40
39 c22 21 40 44 40 50 0 7 -16 28 -35 48 -56 58 -49 84 78 270 93 137 132 223
123 275 -10 67 -53 82 -94 35 -15 -19 -20 -21 -14 -8 47 102 -15 153 -97 80
-21 -20 -91 -114 -155 -210 -201 -301 -213 -336 -207 -595 8 -389 8 -377 -23
-475 -69 -215 -69 -215 -229 -215 -220 0 -359 -54 -562 -220 -27 -22 -67 -45
-88 -52 -34 -10 -40 -9 -57 8 -52 51 -51 264 0 434 29 94 33 120 35 245 2 135
4 144 40 240 l37 100 -6 116 c-8 141 5 243 46 358 61 172 105 257 408 781 214
370 272 476 430 785 167 327 247 472 291 525 46 57 63 91 79 158 9 41 25 68
67 115 79 91 117 176 159 357 28 126 35 171 32 240 l-3 85 41 20 c64 31 82 52
140 165 30 58 74 143 100 190 31 57 56 122 75 198 35 135 44 153 115 240 127
155 197 350 309 862 25 113 52 228 61 257 15 51 16 52 42 42 15 -6 92 -35 172
-65z m322 -3577 c115 -69 150 -87 218 -111 107 -39 138 -60 150 -105 5 -21 19
-50 30 -64 11 -14 20 -31 19 -39 0 -9 -2 -9 -6 2 -3 8 -15 25 -26 38 -24 26
-81 29 -142 7 -57 -20 -151 -18 -201 4 -76 35 -124 119 -124 220 0 77 18 87
82 48z m2085 -5864 c6 -17 -39 -54 -62 -51 -29 4 -25 40 5 55 29 15 52 13 57
-4z"/>
<path d="M12847 13689 c-29 -17 -57 -88 -57 -145 0 -52 32 -193 71 -312 22
-67 51 -97 79 -82 23 12 47 166 33 212 -9 31 -7 36 29 69 49 46 52 94 9 160
-56 86 -120 125 -164 98z m113 -174 c0 -14 -11 -30 -27 -40 -16 -10 -32 -25
-37 -34 -8 -14 -11 -12 -17 9 -9 33 -10 119 -2 149 6 24 7 24 45 -18 21 -24
38 -54 38 -66z"/>
<path d="M12417 13603 c-43 -11 -60 -100 -31 -169 14 -34 14 -45 3 -94 -22
-87 -16 -150 19 -212 16 -29 37 -79 46 -111 21 -71 87 -147 130 -147 75 0 115
113 80 226 -11 36 -18 92 -18 144 -1 82 -2 88 -37 135 -20 28 -52 85 -72 127
-26 57 -43 81 -65 92 -17 9 -32 15 -34 15 -2 -1 -11 -3 -21 -6z m58 -144 c10
-28 36 -79 60 -113 40 -59 42 -65 37 -120 -3 -37 1 -80 12 -120 19 -68 18
-147 -1 -153 -14 -5 -56 73 -72 135 -7 23 -23 59 -36 79 -30 43 -33 101 -9
175 16 48 16 52 -5 102 -23 57 -25 66 -12 66 5 0 17 -23 26 -51z"/>
<path d="M7043 8513 c-43 -30 -164 -157 -183 -194 -25 -46 -30 -81 -15 -114
25 -61 76 -71 146 -27 24 15 72 39 107 52 35 14 79 38 97 53 83 68 65 203 -31
243 -49 20 -76 17 -121 -13z m116 -85 c11 -20 13 -34 6 -55 -8 -23 -31 -38
-129 -86 -65 -31 -121 -55 -124 -52 -12 12 32 74 105 148 85 87 114 96 142 45z"/>
<path d="M6390 8483 c-29 -15 -36 -24 -38 -55 -2 -22 5 -56 17 -84 l21 -46 65
4 c103 6 146 54 115 129 -25 58 -116 85 -180 52z m100 -78 c10 -12 9 -16 -3
-21 -25 -9 -51 0 -55 19 -4 22 40 24 58 2z"/>
<path d="M5452 7140 c-13 -6 -42 -23 -65 -38 -66 -45 -101 -53 -272 -62 -199
-11 -277 -27 -404 -85 -115 -51 -168 -57 -275 -29 -87 23 -163 14 -257 -30
-86 -40 -190 -60 -264 -51 -140 17 -204 38 -317 102 -162 91 -246 112 -358 90
-40 -8 -58 -19 -97 -59 -62 -65 -59 -62 -188 -165 -168 -134 -217 -225 -216
-396 1 -94 19 -176 60 -263 l28 -60 -33 -32 c-20 -19 -36 -46 -40 -67 -12 -64
10 -184 50 -269 59 -128 49 -216 -34 -313 -97 -113 -121 -201 -149 -553 -7
-88 -15 -121 -50 -207 -37 -92 -42 -113 -50 -229 -8 -121 -10 -129 -35 -151
-38 -32 -90 -30 -157 7 -63 35 -95 37 -178 11 -72 -22 -139 -70 -203 -144 -31
-36 -77 -72 -139 -108 -168 -99 -177 -148 -64 -375 l68 -138 -9 -100 c-4 -56
-7 -142 -5 -192 l2 -90 -101 -55 c-104 -55 -163 -110 -233 -214 -79 -117 23
-400 168 -466 72 -33 126 -26 256 37 149 71 200 84 329 84 162 1 217 34 315
193 83 134 97 147 162 147 32 0 79 -10 119 -25 82 -31 142 -32 177 -5 14 11
46 56 71 100 26 44 56 89 69 101 33 32 94 56 175 68 85 13 146 42 296 139 59
39 140 86 179 106 40 20 122 73 182 119 106 80 212 147 232 147 6 0 13 -33 17
-72 8 -90 32 -165 56 -178 15 -8 28 -2 67 29 81 64 130 125 179 223 60 120
125 230 144 245 8 6 52 30 98 53 45 23 106 63 135 89 29 25 77 65 107 88 78
58 101 82 187 191 42 54 131 153 197 222 185 192 306 333 506 590 198 254 308
386 363 437 66 62 72 130 19 229 -123 229 -205 366 -261 431 -129 151 -189
368 -156 568 11 63 15 122 11 149 -10 68 -57 129 -143 186 l-75 50 -86 -1
c-48 0 -97 -4 -110 -9z m236 -110 c87 -58 106 -93 98 -178 -25 -258 -17 -340
47 -507 36 -96 46 -112 113 -190 28 -33 82 -114 119 -180 37 -66 85 -149 106
-185 71 -122 75 -151 23 -201 -47 -44 -202 -229 -289 -344 -226 -296 -388
-486 -597 -700 -54 -56 -125 -137 -158 -180 -79 -103 -149 -177 -208 -217 -26
-17 -69 -51 -97 -75 -27 -24 -95 -68 -150 -97 -113 -60 -112 -59 -236 -297
-66 -128 -142 -217 -159 -189 -5 8 -10 56 -10 107 0 104 -9 118 -72 107 -77
-13 -143 -50 -293 -164 -55 -42 -144 -99 -199 -128 -54 -29 -131 -75 -170
-101 -133 -90 -178 -110 -284 -131 -107 -20 -142 -34 -182 -71 -31 -29 -80
-99 -109 -156 -31 -62 -45 -66 -127 -37 -129 45 -218 44 -275 -3 -18 -15 -64
-77 -104 -138 -71 -109 -105 -145 -154 -160 -13 -4 -76 -8 -140 -10 -130 -3
-163 -12 -320 -89 -124 -61 -173 -63 -231 -10 -49 44 -96 138 -112 220 -11 59
-10 64 15 105 46 77 117 143 204 189 45 24 94 53 110 66 l28 22 4 154 c7 330
12 288 -53 418 -32 63 -65 132 -72 153 -20 58 -5 80 102 143 67 39 110 74 154
123 67 75 135 118 203 127 39 6 53 2 100 -25 102 -58 215 -32 264 63 9 18 18
76 23 151 7 106 12 132 44 209 37 90 40 104 71 386 25 225 38 264 118 357 61
71 82 129 82 228 0 72 -4 89 -38 163 -33 70 -39 94 -40 159 l-2 77 42 30 c50
37 53 61 17 115 -62 94 -97 264 -74 362 26 109 71 170 190 257 41 30 112 91
158 135 l82 80 68 -5 c87 -7 132 -24 244 -91 135 -81 215 -102 398 -102 l145
0 95 43 c105 48 117 49 288 22 100 -16 141 -9 269 49 119 54 150 60 354 71
191 10 232 20 323 78 44 28 58 32 122 32 67 0 76 -3 132 -40z"/>
<path d="M11628 6850 c-14 -10 -31 -33 -38 -50 -16 -38 -31 -38 -84 1 -44 31
-98 41 -118 21 -7 -7 -7 -41 1 -119 6 -59 11 -178 11 -263 l0 -155 -35 -58
c-42 -69 -44 -105 -10 -146 27 -32 54 -43 150 -61 87 -18 112 -33 126 -80 20
-65 -19 -269 -62 -323 -16 -22 -29 -27 -63 -27 -26 0 -62 -10 -92 -25 -34 -18
-67 -26 -111 -28 -58 -2 -65 -5 -103 -42 -47 -46 -51 -76 -14 -102 14 -10 38
-31 52 -48 102 -113 141 -115 202 -7 27 48 46 57 159 77 46 8 104 24 128 36
76 37 179 184 197 281 11 58 -19 216 -82 444 -19 67 -92 509 -92 557 0 38 -21
98 -41 118 -24 24 -50 24 -81 -1z m88 -423 c20 -131 48 -270 65 -325 39 -127
72 -315 64 -361 -15 -81 -99 -197 -163 -225 -20 -9 -74 -23 -120 -30 -125 -22
-164 -49 -206 -141 -3 -5 -15 4 -28 20 -12 17 -33 40 -46 53 -12 13 -20 28
-17 33 4 5 33 9 66 9 48 0 68 5 97 25 23 16 51 25 75 25 73 0 131 40 161 112
24 56 59 266 51 307 -11 56 -42 107 -79 130 -19 12 -70 28 -113 37 -133 25
-130 20 -80 110 31 57 32 63 35 199 2 77 -1 181 -6 230 -5 50 -8 91 -7 92 1 2
19 -6 40 -17 70 -36 124 -24 145 32 l13 33 9 -60 c5 -33 25 -163 44 -288z"/>
<path d="M10983 6729 c-55 -48 -113 -86 -113 -74 0 3 -9 1 -20 -5 -14 -7 -20
-21 -20 -43 0 -35 32 -94 55 -103 21 -8 127 32 174 66 46 34 66 77 56 126 -6
35 -44 84 -64 84 -5 0 -36 -23 -68 -51z m52 -78 c-3 -6 -21 -18 -38 -27 l-32
-15 35 30 c34 29 49 34 35 12z"/>
<path d="M10565 6488 c-21 -11 -85 -66 -141 -122 -85 -85 -103 -109 -114 -150
-12 -45 -12 -52 6 -85 10 -19 35 -46 54 -59 29 -20 44 -23 86 -19 69 7 179 62
217 109 37 46 47 116 23 153 -12 19 -14 30 -6 44 19 37 12 100 -15 126 -29 30
-57 31 -110 3z m46 -104 c-26 -33 -27 -54 -1 -87 40 -51 17 -95 -74 -138 -76
-36 -120 -38 -141 -5 -14 21 -14 28 -2 58 24 55 212 227 230 209 6 -6 2 -19
-12 -37z"/>
<path d="M12084 6435 c-57 -25 -94 -152 -58 -203 35 -50 135 -6 178 80 32 64
32 82 1 113 -27 28 -71 32 -121 10z m56 -78 c0 -13 -36 -57 -46 -57 -7 0 6 42
18 58 13 16 28 15 28 -1z"/>
<path d="M11175 6035 c-22 -8 -41 -15 -41 -15 -11 -1 -34 -94 -34 -137 0 -47
-4 -61 -25 -83 -53 -55 -34 -130 36 -145 61 -14 118 3 169 51 113 105 143 261
63 324 -31 24 -108 26 -168 5z m116 -65 c45 -24 10 -140 -62 -204 -30 -28 -48
-36 -76 -36 l-36 0 21 23 c29 31 42 70 42 131 0 61 14 83 55 89 17 2 31 5 33
6 2 0 12 -4 23 -9z"/>
<path d="M10905 5999 c-90 -72 -94 -92 -35 -151 31 -31 44 -38 62 -33 38 11
72 40 95 81 28 49 29 98 3 124 -31 31 -69 24 -125 -21z m45 -79 c-6 -11 -16
-20 -22 -20 -6 0 -3 9 7 20 10 11 20 20 22 20 2 0 -1 -9 -7 -20z"/>
<path d="M10770 5707 c-39 -14 -80 -68 -80 -106 0 -101 151 -177 249 -126 51
26 71 118 37 170 -35 53 -142 85 -206 62z m99 -78 c36 -13 55 -41 46 -69 -5
-15 -15 -20 -45 -20 -53 0 -89 18 -97 48 -11 44 33 63 96 41z"/>
<path d="M0 450 l0 -450 8000 0 8000 0 0 450 0 450 -8000 0 -8000 0 0 -450z
m1679 154 c12 -15 21 -38 21 -51 0 -29 -17 -63 -31 -63 -6 0 -7 6 -3 12 5 7
-5 3 -20 -10 -36 -27 -56 -28 -90 -1 -34 27 -37 88 -4 119 33 31 100 28 127
-6z m10522 -73 c19 -15 23 -28 23 -74 1 -61 -21 -97 -59 -97 -68 0 -87 145
-24 177 31 16 33 16 60 -6z m159 -7 c11 -11 12 -20 4 -42 -7 -18 -7 -33 -1
-43 17 -26 0 -68 -30 -75 -54 -14 -105 43 -70 78 12 12 12 17 2 32 -39 53 45
97 95 50z m130 16 c16 0 32 -62 27 -107 -5 -50 -25 -73 -63 -73 -33 0 -54 37
-54 95 0 65 28 102 68 89 8 -2 17 -4 22 -4z m148 -6 c23 -15 30 -58 12 -69 -6
-4 -5 -14 4 -28 30 -47 -25 -94 -80 -68 -17 8 -24 19 -24 40 0 16 5 33 10 36
8 5 7 11 0 20 -18 22 -8 58 20 72 32 16 31 16 58 -3z m160 -12 c15 -20 16 -49
1 -58 -8 -4 -8 -9 0 -17 6 -6 11 -23 11 -39 0 -47 -63 -65 -100 -28 -24 24
-25 43 -5 64 9 9 11 17 5 21 -5 3 -10 20 -10 36 0 47 66 62 98 21z m133 18
c15 0 28 -43 18 -61 -5 -10 -3 -29 4 -49 11 -29 10 -33 -12 -51 -13 -10 -32
-19 -44 -19 -44 0 -74 59 -45 88 8 8 8 15 -1 26 -25 30 18 83 57 70 8 -2 18
-4 23 -4z m146 -5 c38 -27 42 -124 6 -160 -20 -21 -56 -19 -77 4 -13 14 -16
33 -14 82 3 56 6 65 28 76 32 16 31 16 57 -2z m382 4 c18 -7 38 -24 47 -41 45
-87 -53 -177 -129 -118 -32 25 -41 63 -26 107 10 31 25 43 75 63 1 0 15 -5 33
-11z m331 -85 c0 -82 -2 -95 -16 -92 -13 2 -16 18 -15 86 0 45 0 87 1 92 0 6
7 10 15 10 12 0 15 -17 15 -96z m1630 81 c0 -8 -9 -15 -20 -15 -20 0 -26 11
-13 23 12 13 33 7 33 -8z m-3720 -69 c0 -83 -6 -106 -26 -106 -11 0 -14 20
-14 90 0 83 1 90 20 90 18 0 20 -7 20 -74z m149 48 c49 -62 11 -142 -72 -151
l-47 -6 0 92 0 91 49 0 c42 0 53 -4 70 -26z m191 -64 c0 -73 -3 -90 -15 -90
-12 0 -15 15 -15 71 0 66 -1 70 -20 64 -28 -9 -26 19 3 33 44 21 47 17 47 -78z
m1200 35 c0 -30 5 -55 10 -55 6 0 10 -7 10 -15 0 -8 -4 -15 -10 -15 -5 0 -10
-9 -10 -20 0 -12 -7 -20 -16 -20 -9 0 -18 9 -21 20 -4 15 -14 20 -39 20 -44 0
-44 14 1 85 24 36 42 55 55 55 18 0 20 -7 20 -55z m490 45 c0 -5 -11 -11 -25
-11 -14 -1 -31 -2 -37 -3 -7 0 -14 -11 -16 -23 -3 -20 1 -23 32 -23 25 0 36
-4 36 -15 0 -10 -11 -15 -35 -15 -31 0 -35 -3 -35 -25 0 -22 4 -25 40 -25 29
0 40 -4 40 -15 0 -12 -13 -15 -60 -15 l-60 0 0 90 0 90 60 0 c33 0 60 -4 60
-10z m690 -12 c20 -22 27 -78 14 -113 -9 -22 -57 -45 -94 -45 l-30 0 0 90 0
90 45 0 c33 0 50 -6 65 -22z m-14060 -98 c0 -94 -2 -103 -25 -125 -55 -56
-135 -16 -135 67 0 45 40 91 74 86 32 -5 32 -36 2 -44 -45 -11 -47 -84 -2 -92
36 -7 46 16 46 114 0 87 1 94 20 94 19 0 20 -7 20 -100z m13560 60 c11 -11 20
-29 20 -40 0 -17 -7 -20 -46 -20 -41 0 -45 -2 -33 -16 9 -11 22 -14 41 -10 30
6 36 -2 16 -22 -17 -17 -49 -15 -76 4 -16 11 -22 25 -22 54 0 62 58 92 100 50z
m138 8 c18 -15 16 -128 -2 -128 -11 0 -16 15 -18 53 -3 44 -6 52 -23 52 -17 0
-20 -8 -23 -52 -2 -38 -7 -53 -18 -53 -11 0 -14 15 -14 69 l0 68 43 0 c23 1
48 -4 55 -9z m133 2 c15 -9 19 -22 19 -69 l0 -59 -46 2 c-33 1 -50 6 -58 19
-15 24 3 51 40 57 38 7 27 26 -13 22 -37 -3 -40 0 -17 22 18 18 47 20 75 6z
m365 2 c13 -8 34 -46 34 -61 0 -6 -20 -11 -46 -11 -41 0 -45 -2 -33 -16 9 -11
22 -14 41 -10 30 6 36 -2 16 -22 -17 -17 -49 -15 -76 4 -16 11 -22 25 -22 54
0 29 6 43 22 54 24 17 47 20 64 8z m124 -9 c0 -7 -9 -17 -20 -23 -15 -8 -20
-21 -20 -55 0 -33 -4 -45 -15 -45 -12 0 -15 14 -15 69 l0 69 35 -1 c21 -1 35
-6 35 -14z m120 -3 c11 -11 20 -29 20 -40 0 -17 -7 -20 -41 -20 -28 0 -39 -4
-36 -12 2 -7 18 -12 36 -12 39 2 43 -23 4 -32 -44 -12 -77 14 -81 63 -2 33 1
44 20 57 30 21 54 20 78 -4z m74 -23 c12 -47 22 -47 30 -1 7 32 29 54 43 41 3
-3 -5 -35 -18 -71 -30 -84 -49 -87 -73 -8 -10 31 -21 63 -24 71 -3 9 1 12 14
9 12 -2 22 -16 28 -41z m130 5 c11 -40 22 -41 31 -1 6 27 29 48 40 37 6 -6
-45 -159 -58 -175 -13 -18 -47 -16 -47 2 0 8 7 15 15 15 20 0 19 30 -5 90 -24
62 -25 72 -3 68 10 -2 21 -18 27 -36z m190 16 c9 -13 16 -43 16 -70 0 -47 0
-47 -32 -46 -55 1 -76 7 -82 24 -10 27 12 54 44 54 21 0 30 5 30 16 0 13 -7
15 -35 10 -38 -7 -47 6 -17 23 28 17 60 12 76 -11z m156 -56 c0 -56 -4 -80
-17 -94 -17 -19 -59 -24 -83 -8 -20 12 -6 24 32 24 17 1 33 7 36 14 3 9 -3 11
-21 7 -52 -13 -87 62 -52 112 12 16 25 21 60 21 l45 -1 0 -75z m70 7 c0 -62
-2 -70 -17 -67 -14 2 -19 15 -21 57 -4 63 2 81 23 81 12 0 15 -14 15 -71z
m128 59 c18 -15 16 -128 -2 -128 -11 0 -16 15 -18 53 -3 44 -6 52 -23 52 -17
0 -20 -8 -23 -52 -2 -38 -7 -53 -18 -53 -11 0 -14 15 -14 69 l0 68 43 0 c23 1
48 -4 55 -9z m133 2 c15 -9 19 -22 19 -69 l0 -59 -46 2 c-33 1 -50 6 -58 19
-15 24 3 51 38 55 15 2 26 10 26 18 0 12 -8 13 -35 8 -38 -7 -48 7 -17 25 22
13 48 14 73 1z m-14241 -19 c0 -17 8 -20 48 -23 39 -3 47 -6 47 -23 0 -17 -8
-20 -47 -23 l-48 -3 0 -38 c0 -27 5 -41 16 -45 19 -7 44 10 44 30 0 18 20 28
32 16 13 -13 3 -55 -18 -76 -22 -23 -64 -20 -91 6 -21 19 -23 30 -23 110 0 81
2 88 20 88 13 0 20 -7 20 -19z m-951 -35 c10 -12 7 -18 -13 -31 -21 -14 -26
-26 -28 -73 -2 -45 -7 -58 -20 -60 -16 -3 -18 5 -18 64 0 56 4 72 22 91 25 27
41 29 57 9z m169 -2 c30 -21 28 -34 -13 -74 -30 -30 -35 -31 -41 -15 -4 10 -2
26 5 36 9 15 8 19 -4 19 -8 0 -19 -9 -25 -21 -9 -16 -8 -26 5 -45 12 -19 24
-24 60 -24 47 0 64 -13 46 -34 -11 -13 -50 -13 -108 0 -56 11 -66 114 -16 154
31 24 61 26 91 4z m199 1 c24 -17 43 -75 38 -115 -2 -14 -4 -31 -4 -37 -1 -19
-29 -15 -35 5 -3 9 -5 34 -4 54 0 46 -7 58 -36 58 -52 0 -60 -71 -11 -90 33
-13 33 -40 0 -40 -37 0 -75 45 -75 87 0 25 8 43 29 64 33 32 65 37 98 14z
m183 5 c14 -7 25 -7 38 1 31 20 71 3 88 -36 18 -44 18 -106 0 -131 -20 -27
-30 -11 -36 59 -4 54 -8 62 -25 62 -18 0 -20 -8 -23 -63 -3 -53 -6 -63 -20
-60 -13 2 -18 17 -22 63 -4 53 -8 60 -27 63 -26 4 -25 6 -28 -66 -3 -58 -7
-67 -30 -59 -10 5 -15 20 -15 51 0 96 43 146 100 116z m323 -4 c7 -17 -11 -36
-34 -36 -13 0 -18 -12 -21 -52 -6 -57 -24 -78 -71 -78 -22 0 -28 4 -25 17 2
10 12 19 23 22 27 5 35 19 35 64 0 24 7 44 20 57 23 23 65 27 73 6z m262 -77
c0 -72 -2 -84 -17 -87 -16 -3 -18 6 -18 81 0 46 3 87 7 91 19 19 28 -7 28 -85z
m170 79 c6 1 21 4 35 7 18 5 34 0 50 -13 22 -18 25 -28 25 -88 0 -57 -3 -69
-17 -72 -15 -3 -18 4 -18 46 0 63 -7 82 -31 82 -17 0 -19 -8 -19 -60 0 -45 -4
-62 -15 -67 -23 -8 -28 2 -33 68 -4 54 -6 60 -26 57 -18 -3 -22 -11 -26 -63
-4 -47 -9 -61 -22 -63 -16 -3 -18 5 -18 67 0 64 2 71 27 91 20 15 34 19 53 14
14 -3 30 -6 35 -6z m279 1 c14 -7 27 -18 30 -25 6 -14 -49 -84 -65 -84 -19 0
-21 31 -4 50 17 19 17 20 -3 20 -15 0 -24 -8 -28 -27 -9 -36 7 -57 47 -63 22
-3 35 -11 37 -22 3 -15 -4 -18 -42 -18 -36 0 -48 5 -65 26 -35 44 -25 115 20
140 30 17 41 17 73 3z m274 -5 c26 -18 29 -49 6 -58 -11 -4 -22 1 -31 14 -18
26 -39 26 -53 -1 -14 -25 -4 -75 16 -83 7 -3 23 4 33 16 30 32 67 8 43 -28
-10 -16 -48 -34 -71 -34 -11 0 -32 10 -47 23 -38 33 -40 104 -5 141 28 30 74
34 109 10z m179 -6 c33 -31 33 -109 -2 -143 -33 -33 -70 -32 -106 4 -23 23
-29 38 -29 71 0 78 82 119 137 68z m179 11 c8 -7 14 -6 19 1 11 17 70 12 89
-9 13 -15 16 -34 14 -92 -3 -66 -5 -74 -23 -74 -18 0 -21 8 -25 70 -4 62 -7
70 -25 70 -18 0 -21 -8 -25 -70 -4 -62 -7 -70 -25 -70 -18 0 -21 8 -25 70 -4
62 -7 70 -25 70 -18 0 -21 -8 -25 -70 -4 -62 -7 -70 -25 -70 -18 0 -20 8 -23
79 -2 44 -1 84 2 91 5 14 106 18 122 4z m-522 -136 c4 -9 0 -23 -9 -32 -13
-14 -17 -14 -31 1 -9 9 -14 24 -11 32 8 21 43 20 51 -1z"/>
<path d="M1577 592 c-21 -23 -22 -65 -3 -82 19 -15 58 -9 64 10 4 13 3 13 -11
2 -40 -34 -79 25 -41 62 29 30 68 11 83 -39 l9 -30 1 27 c1 17 -8 34 -25 47
-33 26 -56 27 -77 3z"/>
<path d="M1597 556 c-4 -9 -2 -18 3 -21 6 -4 10 -1 10 5 0 7 7 9 16 6 10 -4
14 -1 12 6 -7 19 -35 21 -41 4z"/>
<path d="M12144 507 c-3 -8 -4 -36 -2 -63 3 -41 6 -49 23 -49 18 0 20 7 20 60
0 49 -3 60 -18 63 -9 2 -20 -3 -23 -11z"/>
<path d="M12294 506 c-7 -19 3 -36 22 -36 10 0 14 8 12 22 -4 26 -26 36 -34
14z"/>
<path d="M12290 415 c0 -22 4 -26 23 -23 14 2 22 10 22 23 0 13 -8 21 -22 23
-19 3 -23 -1 -23 -23z"/>
<path d="M12442 508 c-14 -14 -16 -86 -3 -107 24 -38 53 20 41 83 -6 33 -20
42 -38 24z"/>
<path d="M12587 507 c-3 -8 -2 -20 3 -27 11 -18 42 -4 38 17 -4 22 -34 29 -41
10z"/>
<path d="M12584 425 c-4 -9 -2 -21 4 -27 15 -15 44 -1 40 19 -4 23 -36 29 -44
8z"/>
<path d="M12734 506 c-7 -19 3 -36 22 -36 10 0 14 8 12 22 -4 26 -26 36 -34
14z"/>
<path d="M12734 425 c-4 -9 -2 -21 4 -27 15 -15 44 -1 40 19 -4 23 -36 29 -44
8z"/>
<path d="M12883 504 c-8 -21 13 -42 28 -27 13 13 5 43 -11 43 -6 0 -13 -7 -17
-16z"/>
<path d="M12876 431 c-10 -16 5 -41 24 -41 19 0 30 17 23 38 -5 14 -39 16 -47
3z"/>
<path d="M13025 497 c-4 -13 -5 -41 -3 -63 2 -31 7 -39 23 -39 18 0 20 7 20
60 0 48 -3 60 -17 63 -11 2 -19 -5 -23 -21z"/>
<path d="M13380 510 c-24 -24 -26 -77 -4 -108 20 -29 76 -30 104 -2 45 45 13
130 -50 130 -17 0 -39 -9 -50 -20z m80 -15 c7 -9 9 -19 5 -23 -4 -4 -10 -1
-12 6 -7 19 -41 14 -48 -8 -5 -17 9 -60 20 -60 2 0 11 7 20 16 9 9 19 13 22
10 14 -14 -25 -39 -51 -32 -22 5 -26 12 -26 44 0 57 40 83 70 47z"/>
<path d="M11770 455 c0 -50 3 -65 14 -65 46 0 64 86 24 114 -12 9 -26 16 -30
16 -5 0 -8 -29 -8 -65z"/>
<path d="M13176 455 c-16 -24 -16 -25 4 -25 15 0 20 7 20 25 0 14 -2 25 -4 25
-2 0 -11 -11 -20 -25z"/>
<path d="M14340 450 c0 -58 1 -61 22 -58 58 8 62 110 5 116 -27 3 -27 3 -27
-58z"/>
<path d="M13857 464 c-10 -11 3 -24 24 -24 10 0 19 7 19 15 0 15 -31 21 -43 9z"/>
<path d="M14135 410 c-8 -12 20 -24 35 -15 5 3 10 10 10 16 0 12 -37 12 -45
-1z"/>
<path d="M14507 463 c-14 -13 -6 -23 18 -23 16 0 25 6 25 15 0 15 -31 21 -43
8z"/>
<path d="M14740 455 c0 -8 9 -15 20 -15 11 0 20 7 20 15 0 8 -9 15 -20 15 -11
0 -20 -7 -20 -15z"/>
<path d="M15130 405 c0 -8 9 -15 20 -15 11 0 20 7 20 15 0 8 -9 15 -20 15 -11
0 -20 -7 -20 -15z"/>
<path d="M15274 456 c-11 -28 0 -61 21 -61 16 0 20 7 20 35 0 25 -5 36 -18 38
-9 2 -20 -3 -23 -12z"/>
<path d="M15625 410 c-8 -12 20 -24 35 -15 5 3 10 10 10 16 0 12 -37 12 -45
-1z"/>
<path d="M2452 398 c-19 -19 -15 -76 6 -87 23 -12 39 -2 47 31 12 48 -24 85
-53 56z"/>
</g>
</svg>
