<?xml version="1.0" standalone="no"?>
<!DOCTYPE svg PUBLIC "-//W3C//DTD SVG 20010904//EN"
 "http://www.w3.org/TR/2001/REC-SVG-20010904/DTD/svg10.dtd">
<svg version="1.0" xmlns="http://www.w3.org/2000/svg"
 width="850.200000pt" height="1220.000000pt" viewBox="100 300 1662.200000 2300.000000"
 preserveAspectRatio="xMidYMid meet">

<g transform="translate(0.000000,1920.000000) scale(0.100000,-0.100000)"
fill="#000000" stroke="none">
<path d="M6300 18865 l0 -335 65 0 65 0 2 206 3 206 60 -97 c33 -54 90 -145
126 -204 l66 -106 71 -3 72 -3 0 336 0 335 -65 0 -65 0 0 -205 c0 -113 -4
-205 -8 -205 -4 0 -18 19 -30 43 -12 23 -49 84 -82 136 -33 51 -60 95 -60 97
0 2 -19 34 -42 69 l-41 65 -69 0 -68 0 0 -335z"/>
<path d="M8386 19188 c4 -7 26 -42 49 -78 37 -58 102 -161 172 -272 21 -35 23
-48 23 -173 l0 -135 70 0 70 0 0 138 0 138 33 53 c112 182 192 308 205 324 14
16 10 17 -71 17 l-87 0 -27 -45 c-16 -25 -48 -81 -73 -125 -25 -44 -48 -80
-51 -80 -3 0 -13 16 -22 36 -10 19 -22 40 -28 47 -5 7 -30 47 -55 90 l-44 77
-86 0 c-65 0 -83 -3 -78 -12z"/>
<path d="M9930 18865 l0 -335 65 0 65 0 0 73 c0 68 2 75 30 102 16 16 31 27
34 24 5 -5 53 -93 84 -151 l25 -48 73 0 c41 0 74 2 74 3 0 2 -10 22 -22 44
-44 78 -95 168 -122 215 l-27 46 82 89 82 88 -81 3 c-81 3 -82 3 -111 -30 -16
-18 -50 -55 -75 -83 l-46 -50 0 173 0 172 -65 0 -65 0 0 -335z"/>
<path d="M7049 19001 c-58 -37 -85 -72 -104 -134 -20 -67 -19 -128 3 -200 31
-107 111 -154 245 -144 55 3 77 10 109 33 41 29 88 97 76 109 -3 4 -32 10 -65
15 -57 7 -59 7 -84 -23 -21 -25 -34 -31 -64 -31 -31 0 -43 6 -67 34 -54 66
-48 69 130 72 l157 3 -2 60 c-4 144 -93 235 -231 235 -47 0 -67 -6 -103 -29z
m165 -105 c20 -18 36 -43 36 -55 0 -20 -5 -21 -91 -21 l-91 0 7 28 c11 43 51
79 92 81 6 1 28 -14 47 -33z"/>
<path d="M9109 19005 c-156 -81 -187 -295 -62 -416 56 -54 114 -74 201 -67 75
5 127 33 178 95 33 40 42 61 47 104 9 74 -4 148 -36 202 -57 97 -221 138 -328
82z m164 -104 c58 -38 78 -101 57 -177 -27 -94 -113 -123 -176 -60 -35 35 -40
54 -34 141 3 52 14 72 53 95 40 25 64 25 100 1z"/>
<path d="M9745 19018 c-11 -6 -28 -20 -37 -32 l-18 -21 0 28 c0 28 0 28 -62
25 l-63 -3 -3 -242 -2 -243 68 0 69 0 7 162 c5 133 9 165 23 181 31 34 51 39
83 23 17 -8 32 -11 34 -7 4 6 46 114 46 118 0 0 -14 6 -31 12 -40 14 -88 14
-114 -1z"/>
<path d="M7420 19016 c0 -3 6 -23 13 -43 8 -21 26 -78 42 -128 15 -49 38 -121
50 -160 13 -38 28 -89 34 -112 l12 -43 68 0 68 0 11 38 c6 20 16 60 22 87 6
28 18 75 27 105 l16 54 28 -89 c15 -50 28 -97 28 -105 1 -8 6 -32 12 -52 l10
-38 67 0 67 0 39 123 c22 67 52 160 68 207 16 47 32 102 37 123 l9 37 -68 0
-67 0 -13 -47 c-11 -44 -56 -198 -68 -233 -2 -8 -13 19 -24 60 -11 41 -29 108
-41 148 l-21 72 -62 0 c-62 0 -62 0 -74 -34 -6 -19 -13 -47 -16 -63 -2 -15
-13 -57 -24 -93 -10 -36 -20 -76 -22 -90 -3 -18 -10 -3 -26 50 -12 41 -33 109
-45 150 l-23 75 -67 3 c-37 2 -67 1 -67 -2z"/>
<path d="M6098 17703 c-24 -27 -73 -129 -99 -208 -21 -61 -24 -89 -24 -210 0
-126 3 -148 27 -221 15 -44 45 -112 66 -150 l37 -69 53 -3 53 -3 -16 30 c-55
107 -95 284 -95 421 0 127 40 293 95 400 l16 30 -49 0 c-34 0 -54 -5 -64 -17z"/>
<path d="M10417 17708 c20 -25 76 -195 89 -268 32 -182 -1 -415 -81 -570 l-16
-30 49 0 c57 0 66 8 109 100 67 142 78 191 77 355 -1 138 -3 155 -27 218 -34
85 -74 167 -95 190 -19 21 -122 26 -105 5z"/>
<path d="M6300 17375 l0 -335 65 0 65 0 0 200 c0 110 4 200 8 200 5 0 15 -12
23 -27 8 -15 40 -68 71 -118 32 -49 65 -103 74 -120 9 -16 32 -54 51 -82 l35
-53 69 0 69 0 0 335 0 335 -65 0 -65 0 0 -206 c0 -115 -4 -203 -9 -200 -5 3
-27 36 -50 73 -22 38 -76 127 -119 198 l-79 130 -71 3 -72 3 0 -336z"/>
<path d="M8386 17698 c4 -7 26 -42 49 -78 23 -36 67 -105 98 -155 31 -49 65
-102 76 -117 19 -24 21 -40 21 -167 l0 -141 70 0 70 0 0 141 c0 140 0 141 30
184 17 24 30 46 30 49 0 3 32 54 70 112 39 58 70 108 70 112 0 4 9 18 20 32
11 14 20 28 20 33 0 4 -36 7 -79 7 l-79 0 -29 -47 c-54 -87 -72 -118 -94 -160
-12 -24 -24 -43 -28 -43 -3 1 -38 56 -77 123 l-70 122 -88 3 c-69 2 -86 0 -80
-10z"/>
<path d="M9930 17375 l0 -335 65 0 65 0 0 73 c0 68 2 75 30 102 16 16 31 27
34 24 2 -2 23 -40 46 -84 62 -116 62 -115 142 -115 37 0 68 2 68 4 0 6 -87
162 -130 233 l-40 65 39 47 c22 25 58 64 80 86 23 21 41 43 41 47 0 4 -38 8
-84 8 l-84 0 -68 -80 -69 -80 -3 170 -2 170 -65 0 -65 0 0 -335z"/>
<path d="M7070 17524 c-114 -49 -168 -197 -124 -344 20 -66 73 -123 129 -139
87 -24 198 -7 249 37 20 18 60 91 53 98 -4 4 -103 24 -119 24 -4 0 -13 -11
-20 -24 -26 -59 -111 -54 -149 8 -40 65 -37 66 141 66 l160 0 0 38 c0 58 -27
138 -60 175 -61 70 -176 97 -260 61z m155 -119 c14 -13 25 -36 25 -50 0 -25 0
-25 -90 -25 -56 0 -90 4 -90 10 0 20 30 69 47 79 33 19 82 13 108 -14z"/>
<path d="M9109 17513 c-96 -49 -146 -143 -136 -255 13 -150 120 -237 275 -225
37 3 81 12 99 21 43 23 98 86 114 132 21 59 16 171 -9 219 -63 123 -217 171
-343 108z m180 -111 c50 -36 62 -124 28 -204 -12 -29 -24 -39 -57 -49 -34 -11
-46 -10 -75 4 -51 24 -66 55 -66 132 0 77 16 109 64 131 36 16 71 11 106 -14z"/>
<path d="M9725 17509 l-35 -31 0 26 c0 27 -1 27 -62 24 l-63 -3 -3 -242 -2
-243 68 0 69 0 7 161 c3 88 11 169 16 179 12 23 59 39 85 29 36 -14 42 -10 62
46 l20 54 -23 16 c-40 26 -98 19 -139 -16z"/>
<path d="M7425 17513 c8 -20 49 -153 70 -225 8 -26 23 -73 33 -105 11 -32 26
-77 33 -100 l12 -43 67 0 67 0 17 63 c10 34 20 74 23 89 2 16 12 51 21 79 l18
51 26 -94 c14 -51 31 -114 38 -140 l13 -48 66 0 66 0 49 153 c27 83 62 191 77
238 16 48 29 89 29 93 0 3 -31 6 -68 6 l-68 0 -13 -47 c-7 -27 -24 -84 -37
-127 -13 -44 -24 -85 -24 -93 0 -7 -4 -13 -8 -13 -8 0 -33 77 -47 145 -3 17
-13 54 -21 83 l-15 52 -64 0 c-63 0 -63 0 -75 -34 -6 -19 -13 -47 -16 -63 -3
-15 -13 -57 -24 -93 -10 -36 -20 -74 -23 -85 -3 -17 -6 -16 -16 10 -7 17 -21
62 -31 100 -10 39 -25 90 -32 115 l-14 45 -68 3 c-63 3 -68 1 -61 -15z"/>
<path d="M10076 15033 c-66 -170 -184 -477 -264 -683 -342 -886 -423 -1085
-662 -1630 -138 -316 -418 -957 -622 -1425 -343 -787 -386 -879 -576 -1240
-112 -214 -303 -559 -422 -765 -484 -834 -1152 -2018 -1348 -2388 -138 -259
-180 -328 -291 -480 -90 -124 -156 -228 -220 -347 l-90 -170 -36 -190 c-80
-428 -131 -677 -201 -1000 -41 -187 -99 -452 -129 -590 -30 -137 -82 -412
-115 -610 -33 -198 -90 -533 -126 -744 -36 -211 -64 -385 -62 -386 2 -2 81 -5
176 -6 l173 -2 22 32 c12 17 25 31 28 31 17 0 18 -35 3 -58 -13 -19 -18 -53
-20 -124 -2 -63 -9 -108 -19 -127 -8 -17 -15 -44 -15 -61 0 -17 -9 -43 -20
-58 -24 -32 -30 -125 -11 -161 10 -18 6 -29 -24 -73 -39 -59 -42 -70 -20 -88
9 -7 15 -29 15 -51 0 -43 18 -59 70 -59 l31 0 -20 -29 c-12 -16 -21 -43 -21
-61 0 -26 3 -30 18 -26 25 8 50 -21 54 -64 3 -31 9 -38 53 -62 45 -24 192 -58
252 -58 28 0 53 25 53 53 0 15 13 29 40 45 22 12 40 18 40 12 0 -18 111 -5
122 14 7 12 25 16 77 16 54 0 74 4 95 21 14 11 26 26 26 33 0 7 16 31 36 54
26 30 43 42 63 42 26 0 86 37 103 62 4 7 8 32 8 55 0 41 26 113 41 113 3 0 10
-15 13 -32 l7 -33 30 38 c17 20 39 37 48 37 10 0 31 17 48 38 21 26 45 42 74
51 24 7 69 25 99 39 40 20 68 26 105 25 64 -3 142 14 149 33 7 19 68 18 114
-3 29 -13 66 -17 177 -16 175 1 249 14 350 62 44 21 99 46 121 56 23 9 51 30
63 46 30 40 61 124 61 164 0 19 5 37 10 40 6 3 10 17 10 29 0 13 14 50 31 82
18 32 50 118 72 189 61 201 61 199 49 270 -11 70 -6 102 50 290 27 95 29 108
23 220 -10 200 -10 200 -65 252 -103 97 -114 190 -37 316 58 96 77 192 74 377
-1 74 -6 140 -9 146 -4 6 4 26 17 44 14 19 25 48 25 65 0 33 42 107 78 139 12
11 22 29 22 41 0 11 20 45 45 74 25 29 45 58 45 65 0 7 11 34 25 60 14 26 25
55 25 65 0 10 9 21 20 24 11 3 23 13 27 24 4 10 28 43 55 74 31 36 48 65 48
82 0 15 16 48 39 78 22 29 60 93 86 143 65 125 153 244 232 313 36 32 82 74
102 93 46 46 176 237 185 273 3 15 29 48 56 74 36 34 59 68 87 132 20 47 53
110 73 140 19 29 46 70 59 90 13 20 40 54 61 76 21 22 52 73 69 113 18 40 55
102 84 138 43 54 57 65 91 71 55 9 96 50 144 143 56 108 56 145 2 203 -28 31
-41 56 -46 88 -4 24 -16 62 -27 84 -28 56 -67 187 -60 199 25 42 148 163 193
191 30 19 68 50 83 69 20 26 36 36 56 36 26 0 32 7 65 84 20 46 43 115 52 152
8 37 21 82 29 100 28 66 328 344 372 344 5 0 18 9 28 20 18 19 23 42 45 179
10 60 47 131 69 131 4 0 18 -15 32 -32 18 -24 25 -50 29 -97 l5 -64 165 182
c91 100 165 186 165 191 0 4 -110 129 -245 277 l-245 268 -99 520 -100 520 47
280 c26 154 80 476 121 715 l74 435 141 365 c78 201 148 381 157 400 9 19 133
235 277 480 143 245 309 528 368 630 l108 185 21 179 21 178 -68 160 c-47 110
-74 163 -88 169 -11 4 -227 65 -480 134 -541 149 -651 179 -765 211 -46 13
-91 24 -100 24 -11 0 -49 -87 -134 -307z"/>
</g>
</svg>
