<?xml version="1.0" standalone="no"?>
<!DOCTYPE svg PUBLIC "-//W3C//DTD SVG 20010904//EN"
 "http://www.w3.org/TR/2001/REC-SVG-20010904/DTD/svg10.dtd">
<svg version="1.0" xmlns="http://www.w3.org/2000/svg"
 width="800.000000pt" height="800.000000pt" viewBox="0 0 200.000000 200.000000"
 preserveAspectRatio="xMidYMid meet">

<g transform="translate(0.000000,200.000000) scale(0.100000,-0.100000)"
fill="#000000" stroke="none">
<path d="M1018 1622 c-9 -2 -18 -12 -21 -23 -6 -22 -27 -26 -27 -4 0 9 -9 15
-22 15 -28 0 -39 -8 -55 -37 -11 -19 -10 -24 7 -33 14 -7 20 -21 20 -45 0 -18
5 -35 12 -37 17 -6 0 -28 -22 -28 -24 0 -36 18 -21 33 18 18 13 37 -14 49 -14
6 -25 19 -25 29 0 16 -2 16 -30 3 -16 -9 -30 -22 -30 -30 0 -25 -21 -15 -32
16 -16 46 -52 50 -92 11 -19 -19 -41 -31 -52 -29 -13 2 -19 -3 -19 -17 0 -11
-21 -49 -48 -84 -59 -79 -61 -99 -10 -97 30 1 40 -4 48 -21 5 -13 17 -23 26
-23 24 0 40 -24 37 -57 -1 -21 10 -43 40 -82 23 -29 42 -59 42 -67 0 -28 30
-26 65 5 20 17 40 31 44 31 5 0 16 -24 26 -52 9 -29 22 -59 27 -65 7 -9 6 -23
-3 -44 -11 -29 -11 -33 9 -50 12 -9 22 -22 22 -28 0 -16 42 -13 64 4 30 23 46
19 119 -32 59 -40 68 -49 63 -70 -7 -26 8 -31 22 -7 13 23 32 8 32 -25 0 -38
-63 -101 -102 -101 -6 0 -23 -12 -37 -26 -27 -27 -79 -50 -143 -63 -21 -5 -53
-20 -72 -35 -22 -16 -47 -26 -69 -26 -19 0 -40 -7 -47 -15 -9 -10 -23 -14 -44
-10 -19 3 -41 -1 -56 -10 -14 -8 -33 -18 -42 -21 -12 -4 -18 -17 -18 -40 0
-19 2 -34 4 -34 3 0 32 16 65 35 32 19 70 35 83 35 13 0 83 27 157 60 151 68
262 100 344 100 40 0 56 4 61 15 3 8 15 15 26 15 26 0 27 36 1 69 -14 18 -24
22 -42 18 -31 -8 -49 9 -49 47 0 26 6 35 37 51 20 11 43 19 50 17 9 -2 13 8
13 31 0 36 12 47 51 47 18 0 27 29 13 43 -3 3 -6 74 -7 158 l0 153 31 10 c42
15 61 43 62 93 0 40 -3 44 -78 105 -74 60 -114 88 -128 88 -4 0 -4 -20 -1 -45
3 -32 1 -45 -7 -42 -16 5 -64 99 -58 115 4 13 -15 42 -28 42 -4 0 -10 -9 -13
-20 -6 -22 -47 -28 -47 -7 0 13 -87 44 -112 39z"/>
</g>
</svg>
