<?xml version="1.0" standalone="no"?>
<!DOCTYPE svg PUBLIC "-//W3C//DTD SVG 20010904//EN"
 "http://www.w3.org/TR/2001/REC-SVG-20010904/DTD/svg10.dtd">
<svg version="1.0" xmlns="http://www.w3.org/2000/svg"
 width="1000.000000pt" height="780.000000pt" viewBox="0 0 1000.000000 580.000000"
 preserveAspectRatio="xMidYMid meet">

<g transform="translate(0.000000,780.000000) scale(0.100000,-0.100000)"
fill="#000000" stroke="none">
<path d="M6770 6820 c-58 -33 -129 -67 -158 -76 -50 -15 -55 -15 -124 7 -89
27 -181 22 -260 -14 -29 -14 -77 -30 -106 -37 -40 -9 -66 -24 -107 -62 -56
-51 -101 -70 -166 -72 -29 0 -43 7 -71 37 -30 31 -42 37 -79 38 -85 2 -104 -2
-126 -26 -12 -13 -33 -27 -47 -31 -15 -3 -30 -14 -36 -23 -8 -14 -10 -14 -23
3 -14 19 -16 19 -41 3 -14 -10 -26 -26 -26 -37 0 -29 -17 -34 -56 -15 -42 20
-69 16 -70 -10 -1 -11 -2 -26 -3 -32 -2 -24 -21 -13 -38 22 -17 35 -53 49 -53
21 0 -7 -7 -20 -16 -27 -14 -12 -21 -8 -53 28 -26 29 -46 42 -72 46 -40 6 -52
1 -62 -25 -12 -33 -32 -20 -32 19 0 34 -3 39 -34 49 -21 7 -38 21 -43 35 -9
22 -10 23 -22 7 -7 -10 -23 -18 -35 -18 -14 0 -21 -6 -21 -20 0 -11 -4 -20
-10 -20 -5 0 -10 6 -10 14 0 21 -20 30 -33 17 -19 -19 -40 -13 -34 10 7 25
-65 109 -92 109 -9 -1 -29 -21 -44 -45 -35 -56 -62 -61 -54 -11 3 21 0 41 -8
53 -13 17 -14 17 -37 -4 -13 -12 -36 -23 -53 -25 -25 -2 -31 -8 -33 -31 -3
-27 -5 -28 -21 -13 -14 13 -24 14 -44 7 -34 -13 -40 -26 -25 -50 19 -30 -4
-51 -30 -28 -10 9 -26 17 -35 17 -26 0 -117 -73 -122 -97 -3 -13 -7 -34 -10
-48 -3 -14 -32 -55 -65 -91 -36 -39 -64 -81 -69 -102 -20 -74 -33 -217 -27
-280 4 -38 3 -69 -3 -76 -7 -8 -6 -25 1 -50 10 -30 21 -42 53 -57 22 -10 60
-36 84 -58 57 -51 55 -62 -33 -228 -16 -31 -16 -33 9 -83 28 -56 34 -104 17
-147 -6 -15 -21 -66 -32 -112 -27 -108 -49 -150 -102 -195 -69 -60 -81 -98
-56 -189 9 -36 8 -52 -5 -92 -21 -60 -21 -89 -2 -105 8 -7 60 -16 116 -20 81
-6 107 -12 128 -29 32 -26 77 -48 114 -56 29 -6 35 -23 15 -43 -20 -20 -53
-13 -104 23 -48 35 -87 44 -99 25 -3 -5 -10 -35 -15 -66 -15 -91 -68 -134
-165 -134 -67 0 -90 -18 -100 -81 -4 -24 -18 -66 -32 -92 -26 -52 -30 -81 -18
-138 6 -30 2 -46 -20 -85 -32 -56 -131 -154 -156 -154 -40 0 -124 22 -173 45
-88 42 -124 30 -191 -60 -30 -40 -47 -54 -65 -55 -31 0 -50 -17 -50 -44 -1
-12 -27 -50 -59 -86 -54 -59 -60 -63 -83 -53 -22 10 -29 6 -76 -38 -29 -27
-52 -57 -52 -68 0 -25 37 -111 57 -134 15 -16 14 -19 -7 -42 -20 -21 -22 -28
-12 -50 6 -13 29 -36 52 -50 32 -20 40 -31 40 -55 0 -16 8 -45 17 -65 16 -33
16 -37 -5 -77 -11 -24 -32 -58 -47 -77 -31 -43 -31 -46 0 -83 29 -34 32 -56 9
-72 -14 -11 -14 -16 -1 -48 8 -20 23 -40 33 -46 30 -17 10 -42 -34 -42 -39 0
-40 -1 -52 -47 l-12 -48 -20 27 c-11 16 -24 28 -29 28 -5 0 -40 -30 -79 -68
-69 -67 -70 -68 -70 -121 0 -46 -4 -56 -30 -79 -26 -23 -30 -33 -30 -77 0 -66
82 -241 129 -276 17 -12 42 -40 56 -61 31 -47 62 -51 76 -8 14 38 24 38 38 0
6 -18 17 -30 27 -30 33 0 99 40 119 71 11 17 60 58 109 90 105 70 137 75 181
29 38 -40 61 -39 80 6 l14 35 58 -6 c57 -7 60 -6 123 36 55 38 69 54 97 111
55 113 119 163 225 178 39 6 65 15 73 27 15 21 29 12 30 -20 0 -15 9 -25 30
-32 17 -5 43 -20 58 -32 16 -12 35 -19 47 -16 30 8 105 98 146 176 26 49 51
81 92 113 89 71 97 73 132 35 19 -20 35 -29 42 -25 56 33 122 91 132 116 l13
30 26 -28 c24 -26 28 -27 44 -12 10 9 34 24 53 33 19 10 64 41 100 70 96 77
230 159 320 195 57 23 89 43 111 69 17 20 52 60 77 90 58 67 64 80 45 109 -19
31 -13 82 12 96 27 15 35 27 35 52 0 23 17 34 54 34 12 0 35 13 51 30 47 49
111 37 174 -35 45 -52 42 -65 -33 -161 -22 -29 -49 -63 -58 -77 -26 -38 -82
-60 -133 -53 -48 8 -70 -6 -81 -50 -12 -46 59 -154 100 -154 31 0 96 71 183
201 81 121 117 155 205 198 92 45 179 119 231 198 25 37 59 82 75 98 15 17 37
45 47 63 23 39 33 40 41 7 6 -25 34 -35 34 -12 0 6 16 37 36 67 19 30 39 72
45 92 13 51 35 71 69 63 26 -6 33 0 83 67 30 40 64 91 75 113 11 22 32 51 47
65 15 14 41 43 57 65 48 67 287 313 370 383 80 67 140 137 176 207 24 48 58
81 134 128 34 21 64 50 74 69 9 18 31 58 50 88 18 30 46 93 62 140 16 47 40
102 52 123 21 36 21 39 5 56 -9 11 -29 24 -44 31 -16 6 -63 52 -105 101 -58
67 -83 105 -98 150 -13 40 -30 67 -49 81 -34 26 -36 39 -8 56 20 13 20 14 3
33 -9 10 -27 19 -40 19 -33 0 -40 20 -15 39 27 21 22 39 -28 100 -75 93 -71
71 -72 341 0 135 -4 271 -8 302 -8 68 -38 105 -85 110 -27 3 -31 7 -34 36 -3
27 -8 34 -32 39 -16 3 -37 14 -46 24 -22 25 -56 24 -79 -1 -10 -11 -26 -20
-37 -20 -10 0 -26 9 -35 20 -10 11 -24 20 -33 19 -8 0 -62 -27 -120 -59z"/>
<path d="M3924 5713 c-12 -18 -21 -57 -26 -108 -4 -44 -10 -91 -13 -105 -5
-20 7 -45 57 -119 35 -52 68 -96 73 -98 6 -2 17 17 24 42 13 44 12 48 -18 104
-18 34 -31 74 -31 94 0 34 26 91 58 129 19 22 0 56 -36 63 -15 4 -35 10 -44
16 -24 12 -23 13 -44 -18z"/>
<path d="M3838 4542 c-20 -24 -48 -162 -38 -188 11 -29 21 -30 45 -4 14 15 31
20 72 20 l53 0 0 43 c0 41 11 95 25 129 6 16 -1 17 -70 15 -47 -1 -81 -7 -87
-15z"/>
<path d="M0 400 l0 -400 5000 0 5000 0 0 400 0 400 -5000 0 -5000 0 0 -400z
m2192 123 c23 -20 23 -57 1 -74 -15 -11 -16 -11 -5 1 27 31 11 72 -33 83 -19
4 -19 5 -1 6 11 0 28 -6 38 -16z m-69 -8 c-3 -9 -8 -14 -10 -11 -3 3 -2 9 2
15 9 16 15 13 8 -4z m-1760 -114 c22 -61 43 -108 47 -104 4 4 24 56 45 116 21
59 42 107 47 107 11 0 9 -5 -42 -149 -23 -64 -44 -107 -53 -109 -15 -3 -17 0
-67 143 -15 44 -31 88 -36 99 -5 13 -3 17 6 14 8 -2 32 -55 53 -117z m517 89
c0 -23 4 -30 20 -30 11 0 20 -4 20 -10 0 -5 -10 -10 -21 -10 -20 0 -21 -4 -17
-71 3 -55 8 -74 23 -85 10 -8 16 -16 13 -19 -11 -11 -40 8 -49 32 -12 33 -12
223 1 223 6 0 10 -13 10 -30z m515 16 c24 -11 33 -20 29 -30 -5 -14 -9 -14
-34 -1 -36 18 -61 19 -84 2 -28 -21 -9 -45 49 -62 87 -25 108 -74 54 -127 -29
-29 -33 -30 -90 -25 -68 6 -72 8 -64 29 5 13 12 14 40 5 50 -15 100 1 100 33
0 16 -8 28 -25 36 -113 52 -119 58 -106 110 11 42 70 55 131 30z m105 -16 c0
-25 4 -30 25 -30 16 0 25 -6 25 -15 0 -9 -9 -15 -25 -15 -25 0 -26 -1 -23 -62
3 -54 6 -64 26 -73 12 -5 22 -13 22 -18 0 -17 -31 -18 -55 -3 -24 16 -25 20
-25 131 0 96 3 115 15 115 10 0 15 -10 15 -30z m482 -30 l3 -61 35 30 c19 17
44 30 55 31 16 0 12 -7 -20 -40 l-39 -40 42 -60 c40 -57 41 -60 20 -60 -16 0
-32 14 -53 45 -16 25 -33 45 -37 45 -5 0 -8 -20 -8 -45 0 -38 -3 -45 -20 -45
-19 0 -20 7 -20 130 0 122 1 130 20 130 16 0 19 -8 22 -60z m193 28 c1 -20 -2
-24 -11 -17 -8 7 -14 6 -17 -3 -3 -7 -6 2 -6 20 -1 27 3 33 17 30 11 -2 17
-13 17 -30z m-44 -35 c13 -16 12 -17 -3 -4 -17 13 -22 21 -14 21 2 0 10 -8 17
-17z m-1502 -19 c12 -15 21 -40 21 -55 0 -29 0 -29 -65 -29 -72 0 -83 -12 -44
-51 17 -17 30 -20 65 -16 43 4 59 -5 28 -17 -69 -27 -134 19 -134 95 0 87 82
133 129 73z m191 16 c17 -11 10 -13 -40 -10 -47 2 -75 -28 -75 -80 0 -55 26
-80 82 -80 27 0 42 -4 38 -10 -9 -15 -78 -12 -102 5 -50 35 -50 135 0 170 24
17 74 20 97 5z m265 -13 c20 -16 28 -35 32 -69 5 -42 3 -50 -25 -78 -41 -40
-83 -41 -123 -1 -84 85 27 226 116 148z m85 7 c0 -14 2 -14 22 0 24 17 38 20
38 9 0 -5 -14 -16 -30 -25 -29 -17 -30 -19 -30 -93 0 -43 -4 -75 -10 -75 -6 0
-10 40 -10 100 0 60 4 100 10 100 6 0 10 -7 10 -16z m545 -9 c20 -19 25 -34
25 -75 0 -63 -30 -100 -82 -100 -66 0 -103 56 -87 130 16 69 95 94 144 45z
m184 16 c21 -13 3 -32 -24 -25 -52 13 -88 -41 -65 -97 13 -31 39 -44 69 -34
23 7 39 -14 20 -26 -50 -32 -129 20 -129 85 0 67 32 104 90 105 14 0 31 -3 39
-8z m5360 -94 c8 -26 17 -47 21 -47 4 0 13 21 21 47 8 25 20 48 26 50 13 5
-22 -113 -38 -131 -12 -14 -18 -5 -45 69 -16 44 -20 65 -12 63 7 -3 19 -26 27
-51z m638 38 c2 -6 -9 -11 -23 -10 -38 0 -40 -20 -5 -35 69 -28 36 -101 -33
-74 -27 10 -18 22 17 20 38 -1 43 19 8 37 -36 18 -48 42 -31 62 14 17 61 17
67 0z m333 -20 c0 -35 16 -47 26 -20 4 8 13 15 22 15 13 0 13 -3 -2 -19 -16
-18 -16 -21 -1 -50 9 -18 11 -31 5 -31 -6 0 -16 11 -22 25 -6 14 -15 25 -20
25 -4 0 -8 -11 -8 -25 0 -14 -4 -25 -10 -25 -6 0 -10 30 -10 70 0 40 4 70 10
70 6 0 10 -16 10 -35z m580 32 c0 -4 -34 -104 -45 -136 -3 -8 -8 -11 -11 -8
-8 7 38 147 48 147 4 0 8 -2 8 -3z m100 -16 c-5 -11 -15 -23 -20 -26 -6 -4 -1
-14 12 -25 20 -15 21 -21 10 -44 -11 -26 -34 -32 -66 -20 -28 11 -17 24 14 18
22 -5 31 -2 36 11 6 16 -3 28 -31 39 -6 2 -5 9 3 17 18 19 15 29 -8 29 -11 0
-20 5 -20 10 0 6 18 10 40 10 37 0 40 -2 30 -19z m110 0 c-5 -11 -15 -23 -20
-26 -6 -4 -2 -14 11 -24 40 -32 1 -82 -51 -66 -31 10 -23 25 10 19 22 -5 31
-2 36 11 6 16 -3 28 -31 39 -6 2 -5 9 3 17 18 19 15 29 -8 29 -11 0 -20 5 -20
10 0 6 18 10 40 10 37 0 40 -2 30 -19z m108 7 c21 -21 13 -45 -25 -77 l-38
-30 43 -1 c23 0 42 -4 42 -10 0 -5 -22 -10 -50 -10 -62 0 -65 15 -14 63 42 40
39 62 -8 53 -26 -5 -29 -4 -18 9 15 18 51 20 68 3z m109 0 c14 -23 12 -106 -2
-118 -33 -27 -86 8 -70 46 4 11 7 27 6 37 -5 38 47 64 66 35z m123 2 c0 -5
-11 -10 -25 -10 -32 0 -32 -16 -1 -24 27 -7 41 -35 31 -65 -7 -23 -37 -35 -65
-26 -31 10 -24 23 13 21 28 -1 32 2 32 24 0 21 -4 25 -30 24 -29 -1 -30 0 -27
32 4 31 7 34 38 34 19 0 34 -4 34 -10z m112 -42 c2 -29 2 -61 0 -70 -5 -22
-22 -24 -22 -3 0 10 -10 15 -30 15 -16 0 -30 3 -30 6 0 16 56 104 67 104 6 0
13 -22 15 -52z m128 42 c0 -5 -11 -10 -25 -10 -14 0 -29 -8 -36 -21 -9 -18 -8
-20 9 -15 12 4 28 -1 43 -13 21 -16 22 -22 11 -45 -21 -47 -92 -23 -92 31 0
27 17 64 34 75 16 11 56 10 56 -2z m110 0 c0 -5 -11 -10 -25 -10 -15 0 -29 -8
-36 -22 -10 -18 -9 -20 6 -14 23 8 65 -19 65 -42 0 -41 -48 -56 -82 -25 -28
25 -19 92 16 115 16 11 56 10 56 -2z m-1749 -48 c-15 -5 -14 -59 2 -65 6 -2 9
-7 6 -11 -15 -17 -37 8 -41 47 -6 59 0 72 24 50 11 -10 15 -19 9 -21z m-361
13 c9 -10 9 -15 1 -15 -15 0 -14 -57 2 -63 6 -2 9 -7 6 -11 -15 -17 -37 8 -41
47 -7 58 5 74 32 42z m-172 -7 c23 -23 13 -38 -24 -38 -41 0 -44 -24 -3 -27
42 -2 44 -3 29 -13 -35 -23 -80 1 -80 44 0 28 18 46 45 46 12 0 26 -5 33 -12z
m117 3 c3 -5 -9 -11 -27 -13 -28 -2 -33 -7 -33 -28 0 -21 5 -26 33 -28 36 -4
34 -22 -3 -22 -28 0 -55 24 -55 50 0 37 67 69 85 41z m169 -7 c31 -30 9 -84
-34 -84 -24 0 -50 26 -50 50 0 24 26 50 50 50 10 0 26 -7 34 -16z m86 6 c0 -4
-7 -10 -15 -14 -9 -3 -15 -19 -15 -41 0 -19 -4 -35 -10 -35 -5 0 -10 22 -10
49 0 45 2 49 25 49 14 0 25 -4 25 -8z m274 -6 c21 -20 20 -43 -1 -66 -20 -22
-46 -23 -67 -2 -31 30 -9 84 34 84 10 0 26 -7 34 -16z m113 9 c14 -6 10 -9
-17 -13 -29 -4 -35 -9 -35 -30 0 -21 5 -26 33 -28 36 -4 34 -22 -3 -22 -28 0
-55 24 -55 50 0 22 25 50 45 50 7 0 22 -3 32 -7z m250 0 c14 -6 10 -9 -17 -13
-29 -4 -35 -9 -35 -30 0 -21 5 -26 33 -28 36 -4 34 -22 -3 -22 -28 0 -55 24
-55 50 0 22 25 50 45 50 7 0 22 -3 32 -7z m107 -9 c31 -30 9 -84 -34 -84 -24
0 -50 26 -50 50 0 24 26 50 50 50 10 0 26 -7 34 -16z m113 4 c7 -5 14 -5 18 2
10 16 42 12 49 -6 10 -25 7 -84 -4 -84 -5 0 -10 18 -10 41 0 33 -3 40 -17 37
-13 -2 -19 -14 -21 -41 -4 -50 -22 -47 -22 4 0 36 -2 40 -22 37 -19 -2 -24
-10 -26 -40 -5 -55 -22 -46 -22 10 0 48 0 49 33 49 17 0 37 -4 44 -9z m-327
-78 c0 -5 -4 -10 -10 -10 -5 0 -10 5 -10 10 0 6 5 10 10 10 6 0 10 -4 10 -10z"/>
<path d="M2150 500 c0 -5 5 -10 10 -10 6 0 10 5 10 10 0 6 -4 10 -10 10 -5 0
-10 -4 -10 -10z"/>
<path d="M536 418 c-28 -39 -21 -48 39 -48 59 0 67 9 45 51 -15 27 -64 25 -84
-3z"/>
<path d="M986 424 c-50 -50 -21 -144 44 -144 48 0 80 50 66 104 -13 53 -75 75
-110 40z"/>
<path d="M1616 408 c-22 -31 -20 -74 4 -98 26 -26 55 -25 74 2 32 46 8 118
-39 118 -13 0 -31 -10 -39 -22z"/>
<path d="M9192 373 c5 -26 38 -29 38 -4 0 15 -6 21 -21 21 -14 0 -19 -5 -17
-17z"/>
<path d="M9184 325 c-8 -21 10 -39 30 -32 22 9 20 24 -4 37 -16 9 -22 8 -26
-5z"/>
<path d="M9427 350 c-18 -29 -18 -30 2 -30 17 0 21 6 21 30 0 17 -1 30 -3 30
-1 0 -11 -13 -20 -30z"/>
<path d="M9534 325 c-4 -9 -2 -21 4 -27 16 -16 47 -5 47 17 0 26 -42 34 -51
10z"/>
<path d="M9644 325 c-4 -9 -2 -21 4 -27 16 -16 47 -5 47 17 0 26 -42 34 -51
10z"/>
<path d="M7375 340 c-4 -6 5 -10 19 -10 14 0 26 5 26 10 0 6 -9 10 -19 10 -11
0 -23 -4 -26 -10z"/>
<path d="M7654 336 c-10 -26 4 -48 28 -44 17 2 23 10 23 28 0 18 -6 26 -23 28
-13 2 -25 -3 -28 -12z"/>
<path d="M8014 336 c-10 -26 4 -48 28 -44 17 2 23 10 23 28 0 18 -6 26 -23 28
-13 2 -25 -3 -28 -12z"/>
<path d="M8484 336 c-10 -26 4 -48 28 -44 17 2 23 10 23 28 0 18 -6 26 -23 28
-13 2 -25 -3 -28 -12z"/>
</g>
</svg>
